<svg id="visual" viewBox="0 0 1440 320" width="1440" height="320" xmlns="http://www.w3.org/2000/svg" xmlns:xlink="http://www.w3.org/1999/xlink" version="1.1"><path d="M0 46L21.8 51.3C43.7 56.7 87.3 67.3 131 66.2C174.7 65 218.3 52 262 44.5C305.7 37 349.3 35 393 40.3C436.7 45.7 480.3 58.3 524 64.7C567.7 71 611.3 71 654.8 70.5C698.3 70 741.7 69 785.2 61.7C828.7 54.3 872.3 40.7 916 37C959.7 33.3 1003.3 39.7 1047 47C1090.7 54.3 1134.3 62.7 1178 68C1221.7 73.3 1265.3 75.7 1309 72.5C1352.7 69.3 1396.3 60.7 1418.2 56.3L1440 52L1440 0L1418.2 0C1396.3 0 1352.7 0 1309 0C1265.3 0 1221.7 0 1178 0C1134.3 0 1090.7 0 1047 0C1003.3 0 959.7 0 916 0C872.3 0 828.7 0 785.2 0C741.7 0 698.3 0 654.8 0C611.3 0 567.7 0 524 0C480.3 0 436.7 0 393 0C349.3 0 305.7 0 262 0C218.3 0 174.7 0 131 0C87.3 0 43.7 0 21.8 0L0 0Z" fill="#f4e1d2"></path><path d="M0 129L21.8 136.5C43.7 144 87.3 159 131 163.3C174.7 167.7 218.3 161.3 262 157.5C305.7 153.7 349.3 152.3 393 154.3C436.7 156.3 480.3 161.7 524 167C567.7 172.3 611.3 177.7 654.8 172.3C698.3 167 741.7 151 785.2 157C828.7 163 872.3 191 916 199.7C959.7 208.3 1003.3 197.7 1047 187C1090.7 176.3 1134.3 165.7 1178 161.8C1221.7 158 1265.3 161 1309 157.7C1352.7 154.3 1396.3 144.7 1418.2 139.8L1440 135L1440 50L1418.2 54.3C1396.3 58.7 1352.7 67.3 1309 70.5C1265.3 73.7 1221.7 71.3 1178 66C1134.3 60.7 1090.7 52.3 1047 45C1003.3 37.7 959.7 31.3 916 35C872.3 38.7 828.7 52.3 785.2 59.7C741.7 67 698.3 68 654.8 68.5C611.3 69 567.7 69 524 62.7C480.3 56.3 436.7 43.7 393 38.3C349.3 33 305.7 35 262 42.5C218.3 50 174.7 63 131 64.2C87.3 65.3 43.7 54.7 21.8 49.3L0 44Z" fill="#efcbab"></path><path d="M0 196L21.8 206.2C43.7 216.3 87.3 236.7 131 246.3C174.7 256 218.3 255 262 243.8C305.7 232.7 349.3 211.3 393 206.5C436.7 201.7 480.3 213.3 524 222.3C567.7 231.3 611.3 237.7 654.8 229.2C698.3 220.7 741.7 197.3 785.2 199.5C828.7 201.7 872.3 229.3 916 240.5C959.7 251.7 1003.3 246.3 1047 242.7C1090.7 239 1134.3 237 1178 234.8C1221.7 232.7 1265.3 230.3 1309 225.5C1352.7 220.7 1396.3 213.3 1418.2 209.7L1440 206L1440 133L1418.2 137.8C1396.3 142.7 1352.7 152.3 1309 155.7C1265.3 159 1221.7 156 1178 159.8C1134.3 163.7 1090.7 174.3 1047 185C1003.3 195.7 959.7 206.3 916 197.7C872.3 189 828.7 161 785.2 155C741.7 149 698.3 165 654.8 170.3C611.3 175.7 567.7 170.3 524 165C480.3 159.7 436.7 154.3 393 152.3C349.3 150.3 305.7 151.7 262 155.5C218.3 159.3 174.7 165.7 131 161.3C87.3 157 43.7 142 21.8 134.5L0 127Z" fill="#e8b585"></path><path d="M0 321L21.8 321C43.7 321 87.3 321 131 321C174.7 321 218.3 321 262 321C305.7 321 349.3 321 393 321C436.7 321 480.3 321 524 321C567.7 321 611.3 321 654.8 321C698.3 321 741.7 321 785.2 321C828.7 321 872.3 321 916 321C959.7 321 1003.3 321 1047 321C1090.7 321 1134.3 321 1178 321C1221.7 321 1265.3 321 1309 321C1352.7 321 1396.3 321 1418.2 321L1440 321L1440 204L1418.2 207.7C1396.3 211.3 1352.7 218.7 1309 223.5C1265.3 228.3 1221.7 230.7 1178 232.8C1134.3 235 1090.7 237 1047 240.7C1003.3 244.3 959.7 249.7 916 238.5C872.3 227.3 828.7 199.7 785.2 197.5C741.7 195.3 698.3 218.7 654.8 227.2C611.3 235.7 567.7 229.3 524 220.3C480.3 211.3 436.7 199.7 393 204.5C349.3 209.3 305.7 230.7 262 241.8C218.3 253 174.7 254 131 244.3C87.3 234.7 43.7 214.3 21.8 204.2L0 194Z" fill="#dda15e"></path></svg>