<?xml version="1.0" encoding="UTF-8" standalone="no"?>
<svg
   viewBox="0 0 768 767.99997"
   height="768"
   width="768"
   xml:space="preserve"
   id="svg2"
   version="1.1"
   xmlns="http://www.w3.org/2000/svg"
   xmlns:svg="http://www.w3.org/2000/svg"
   xmlns:rdf="http://www.w3.org/1999/02/22-rdf-syntax-ns#"
   xmlns:cc="http://creativecommons.org/ns#"
   xmlns:dc="http://purl.org/dc/elements/1.1/"><metadata
     id="metadata8"><rdf:RDF><cc:Work
         rdf:about=""><dc:format>image/svg+xml</dc:format><dc:type
           rdf:resource="http://purl.org/dc/dcmitype/StillImage" /></cc:Work></rdf:RDF></metadata><defs
     id="defs6" /><g
     id="g828"
     transform="translate(61.598085,251.23414)"><path
       d="m 474.32573,28.12954 -38.66259,70.174035 c -14.5931,-11.84967 -32.41283,-20.57163 -55.1487,-20.57163 -53.80382,0 -75.65817,40.106415 -75.65817,68.357445 0,20.97 13.73137,51.9107 61.60471,51.9107 20.09415,0 48.66161,-13.9799 56.88348,-20.3398 L 385.1057,259.0738 c -18.22657,3.6363 -24.21356,5.89089 -39.64298,6.3684 -85.68547,2.557 -120.31057,-50.07991 -120.28514,-103.86687 0.0566,-71.103725 63.27451,-157.57741 168.07371,-157.57741 6.42209,0 14.27667,2.22076 20.9926,4.68166 L 421.03047,0"
       style="fill:#0060af;fill-opacity:1;fill-rule:nonzero;stroke:none"
       id="path46" /><path
       d="m 633.85545,2.20098 10.94838,255.05321 h -81.47846 l -0.0481,-43.7427 h -55.55839 l -18.28589,43.7427 H 401.06906 L 493.45069,75.12426 472.61912,74.98864 512.19995,2.20098 Z M 562.749,80.226905 531.33636,154.41297 h 32.35913"
       style="fill:#0060af;fill-opacity:1;fill-rule:nonzero;stroke:none"
       id="path48" /><path
       d="m 173.7386,2.20098 c 40.34935,0.22602 63.15021,22.12841 63.15021,53.76716 0,29.166455 -24.04686,54.98482 -50.44445,68.33477 27.1774,9.99042 29.52811,34.51491 29.52811,51.86558 0,41.9174 -42.06151,81.0857 -96.73556,81.0857 H 0 L 46.51149,77.661375 27.40623,77.551185 66.46154,2.20098 c 0,0 74.46586,-0.22604 107.27706,0 m -39.58647,103.40904 c 8.3462,0 23.08339,-2.11332 26.7677,-18.266115 C 164.9573,69.80971 151.12705,69.3378 144.49304,69.3378 l -23.70499,-0.10383 -8.26707,36.3769 z m -33.51472,45.07069 -10.91448,41.91738 h 27.91199 c 10.98228,0 25.94835,-5.4502 29.61569,-19.0911 3.62216,-13.68051 -6.84026,-22.82628 -17.78298,-22.82628"
       style="fill:#0060af;fill-opacity:1;fill-rule:nonzero;stroke:none"
       id="path50" /></g></svg>
