<?xml version="1.0" encoding="UTF-8" standalone="no"?>
<!-- Created with Inkscape (http://www.inkscape.org/) -->

<svg
   version="1.1"
   id="svg2"
   width="122.76592"
   height="87.983261"
   viewBox="0 0 122.76592 87.983261"
   xmlns="http://www.w3.org/2000/svg"
   xmlns:svg="http://www.w3.org/2000/svg">
  <defs
     id="defs6" />
  <g
     id="g8"
     transform="translate(0,-709.7143)">
    <path
       d="m 61.68783,796.94756 c -0.23661,-0.4125 -1.46018,-4.35 -2.71904,-8.75 -1.25886,-4.4 -2.56896,-8.32964 -2.91134,-8.73252 -0.34237,-0.40289 -4.65786,2.1284 -9.58997,5.62509 l -8.96748,6.35763 -2.5637,-9.1251 c -1.41004,-5.01881 -2.77066,-9.71946 -3.0236,-10.44591 -0.30591,-0.87855 -2.95389,0.71192 -7.9083,4.75 -4.09662,3.33895 -7.72741,6.07081 -8.06841,6.07081 -0.34101,0 -1.8931,-3.2625 -3.44911,-7.25 -1.556,-3.9875 -3.43892,-8.72637 -4.18428,-10.53083 L 6.9474,761.6359 3.4737,764.28542 0,766.93494 v -6.95823 -6.95822 l 5.88127,-4.56721 5.88126,-4.56721 4.2782,10.91742 c 3.79064,9.67321 4.45947,10.7662 5.86874,9.59058 3.23351,-2.69741 12.64094,-10.30771 14.17393,-11.46624 1.38658,-1.04788 1.93345,0.0755 4.39951,9.03755 1.54886,5.6288 2.98893,10.55314 3.20016,10.94299 0.21123,0.38985 4.22093,-2.03568 8.91044,-5.39005 4.76129,-3.40571 8.88276,-5.70583 9.33341,-5.20881 0.96158,1.06052 10.44208,32.38338 9.92846,32.80289 -0.7414,0.60553 -7.21026,2.58716 -8.44558,2.58716 -0.71047,0 -1.48535,-0.3375 -1.72197,-0.75 z m 48.79979,-43.70421 c -1.55043,-5.25019 -3.0148,-9.54579 -3.25415,-9.54579 -0.23935,0 -4.30925,2.69555 -9.04421,5.99011 -4.73497,3.29456 -8.90488,5.65706 -9.26648,5.25 -0.36159,-0.40706 -1.65913,-4.56511 -2.88342,-9.24011 -1.22428,-4.675 -2.53954,-8.83305 -2.92278,-9.24012 -0.38325,-0.40707 -3.9955,1.94847 -8.02723,5.23452 -4.03173,3.28606 -7.64051,5.783 -8.01951,5.54876 -0.37901,-0.23424 -2.40328,-4.95227 -4.49839,-10.48452 -2.09511,-5.53225 -4.09327,-10.04136 -4.44037,-10.02024 -0.34709,0.0211 -4.23108,2.94471 -8.63108,6.49687 -4.4,3.55216 -8.26218,6.45988 -8.58263,6.4616 -0.32045,0.002 -2.0122,-1.77578 -3.75945,-3.94999 L 33.9811,731.79131 47.74055,720.86835 C 55.30825,714.86073 61.95,709.84257 62.5,709.7169 c 0.55,-0.12568 2.7503,4.31856 4.88955,9.87608 2.13926,5.55752 4.17473,10.10458 4.52327,10.10458 0.34855,0 4.2139,-2.91185 8.58968,-6.47077 4.37578,-3.55892 8.24805,-6.14642 8.60504,-5.75 0.35699,0.39642 1.65872,4.60801 2.89273,9.35909 1.23401,4.75107 2.57916,9.18118 2.98923,9.84468 0.52343,0.84693 3.32057,-0.50725 9.38798,-4.54504 4.75332,-3.16327 8.8151,-5.56838 9.02617,-5.34468 0.21107,0.22369 2.62821,7.75065 5.37143,16.72657 5.58119,18.26193 5.7638,16.82995 -2.37179,18.59854 l -3.09672,0.67319 z"
       style="fill:#b5c3e0"
       id="path2935-6" />
  </g>
  <g
     id="layer1"
     transform="translate(0,-709.7143)" />
</svg>
