<?xml version="1.0" encoding="UTF-8" standalone="no"?>
<!-- Created with Inkscape (http://www.inkscape.org/) -->

<svg
   version="1.1"
   id="svg2"
   width="300.1185"
   height="337.11661"
   viewBox="0 0 300.1185 337.11661"
   xmlns="http://www.w3.org/2000/svg"
   xmlns:svg="http://www.w3.org/2000/svg">
  <defs
     id="defs6" />
  <g
     id="g8"
     transform="translate(-1619.8815)">
    <path
       style="fill:#fcd34d"
       d="m 1873.3856,291.10365 45.9959,-46.01298 0.3092,5.21386 0.3093,5.21385 -40.8345,40.79912 -40.8344,40.79912 h -5.4707 -5.4707 z m -68.5041,44.26766 c 0,-0.40992 17.6625,-18.45328 39.25,-40.09634 21.5875,-21.64306 38.35,-39.09918 37.25,-38.79137 -1.1,0.30782 -4.25,1.04267 -7,1.63302 -2.75,0.59035 -5.9,1.32936 -7,1.64227 -1.1,0.3129 -18.65,17.10404 -39,37.31365 l -37,36.74475 -4.4051,-0.93987 -4.4052,-0.93986 34.8998,-34.91047 34.8998,-34.91047 h -6.4892 -6.4892 l -33.5982,33.58726 -33.5982,33.58726 -4.2234,-1.26537 -4.2235,-1.26538 32.1654,-32.17682 c 24.7479,-24.75665 31.7778,-32.32558 30.4844,-32.82189 -0.9245,-0.35478 -3.779,-0.64506 -6.3433,-0.64506 h -4.6624 l -31.216,31.20421 -31.216,31.20422 -3.7159,-1.77201 -3.716,-1.772 30.3814,-30.39361 c 16.7097,-16.71649 30.1683,-30.60664 29.9079,-30.86701 -0.2603,-0.26037 -2.7152,-0.75724 -5.4552,-1.10416 l -4.9819,-0.63076 -29.4248,29.4967 -29.4248,29.4967 -3.9731,-2.02692 -3.9731,-2.02692 29.1684,-29.18094 29.1683,-29.18094 -4.7331,-1.75422 -4.7332,-1.75423 -28.5373,28.52311 -28.5373,28.5231 -3.4105,-2.07504 -3.4104,-2.07505 27.6604,-27.67369 c 15.2133,-15.22054 27.6605,-27.99909 27.6605,-28.3968 0,-0.3977 -1.8665,-1.67529 -4.1477,-2.83909 l -4.1477,-2.116 -27.6957,27.68243 -27.6957,27.68243 -2.9066,-2.53727 -2.9066,-2.53727 27.3149,-27.37112 27.3149,-27.37111 -3.8149,-2.59031 -3.8149,-2.5903 -27.2213,27.12648 -27.2214,27.12647 -3.0573,-2.92907 -3.0573,-2.92907 26.7787,-26.82776 26.7786,-26.82776 -3.5,-2.9155 -3.5,-2.91549 -26.5355,26.48642 -26.5354,26.48643 -2.6913,-2.80902 -2.6912,-2.80902 26.4568,-26.4426 26.4567,-26.4426 -3.1993,-3.30082 -3.1993,-3.30083 -26.2149,26.20091 c -27.9825,27.96753 -27.3209,27.50035 -30.5088,21.54358 -0.9311,-1.73976 1.9857,-5.00802 25.1886,-28.22327 l 26.2416,-26.25566 -2.8065,-3.67951 -2.8065,-3.6795 -26.352,26.32053 c -21.2642,21.23889 -26.5467,26.03093 -27.361,24.82053 -3.5688,-5.30539 -4.7917,-3.6354 23.0936,-31.5356 l 26.2508,-26.26488 -2.3168,-3.84976 c -1.2743,-2.11737 -2.4809,-4.05442 -2.6814,-4.30457 -0.2005,-0.25014 -12.2058,11.38024 -26.6786,25.8453 l -26.3142,26.3001 -2.0289,-3.34529 -2.0289,-3.3453 26.5224,-26.6481 26.5224,-26.64809 -1.8912,-4.58998 -1.8912,-4.58999 -26.6689,26.65007 -26.6689,26.65007 -1.5811,-3.78411 c -0.8696,-2.08127 -1.5811,-4.06359 -1.5811,-4.40517 0,-0.34158 11.9522,-12.5794 26.5604,-27.19514 l 26.5604,-26.57409 -1.1791,-4.68273 c -0.6485,-2.57551 -1.4601,-4.68274 -1.8036,-4.68274 -0.3435,0 -12.643,12.01232 -27.3323,26.69405 l -26.7077,26.69405 -1.0787,-2.94405 c -0.5933,-1.61923 -1.2498,-3.43766 -1.4589,-4.04096 -0.2091,-0.60329 11.9803,-13.42829 27.0876,-28.5 l 27.4679,-27.40309 -0.6545,-5.5 c -0.36,-3.025 -0.8533,-5.70475 -1.0963,-5.95499 -0.243,-0.25025 -12.9588,12.05594 -28.2572,27.34709 l -27.8154,27.80208 -1.1162,-4.34709 -1.1161,-4.34709 28.9698,-29.00625 28.9699,-29.00625 v -5.74375 c 0,-3.15906 -0.3347,-5.74375 -0.7437,-5.74375 -0.4091,0 -13.8454,13.09596 -29.8585,29.10214 l -29.1147,29.10214 -0.5767,-4.85214 -0.5767,-4.85214 30.5635,-30.63436 30.5635,-30.634371 1.1947,-7.61564 c 0.6571,-4.1886 0.9394,-7.61564 0.6274,-7.61564 -0.312,0 -14.8574,14.28486 -32.323,31.744151 l -31.7558,31.74414 v -5.48886 -5.48886 l 34.4306,-34.505291 34.4306,-34.50528 3.6168,-9 c 1.9893,-4.95 3.8793,-9.675 4.2002,-10.5 0.3208,-0.825 -16.6273,15.6 -37.6624,36.5 -36.9466,36.709211 -38.2252,37.864141 -37.6418,34.000011 0.3322,-2.2 0.6089,-5.11439 0.615,-6.47642 0.01,-1.928271 10.9094,-13.383121 49.2473,-51.750001 L 1720.3542,0.11661 h 6.9087 6.9087 l -4.9476,5.25 c -7.0671,7.49891 -15.5476,19.117619 -19.8899,27.249999 l -3.7377,7 19.9017,-19.75 19.9017,-19.749999 h 5.4686 5.4685 l -29.6454,29.749999 c -26.5823,26.67603 -29.7639,30.21497 -30.7917,34.25 -0.6305,2.475 -1.5553,6.0497 -2.0552,7.94377 -0.4999,1.89408 -0.6784,3.67423 -0.3968,3.9559 0.2817,0.28168 17.7092,-16.68052 38.7277,-37.69376 L 1770.3911,0.11661 h 5.4911 5.4911 l -45.209,45.249999 -45.209,45.25 -0.6469,7 -0.6468,7.000011 52.3635,-52.250011 52.3635,-52.249999 h 5.4932 5.4932 l -57.2468,57.253229 -57.2467,57.253251 0.07,4.49676 c 0.039,2.47322 0.3808,5.28089 0.7604,6.23927 0.5451,1.37617 14.037,-11.60557 64.1768,-61.750011 L 1819.3756,0.11661 h 5.5002 5.5002 l -68.2472,68.252719 c -46.4887,46.492371 -68.223,68.889501 -68.1712,70.250011 0.042,1.0985 0.6063,3.45894 1.2544,5.24541 l 1.1783,3.24814 73.4931,-73.498151 73.493,-73.498129 h 6.0002 6.0001 l -78.1499,78.249999 -78.1498,78.250011 1.9473,4.45267 1.9473,4.45268 82.7072,-82.702691 82.7072,-82.702669 h 5.4956 5.4956 l -86.437,86.441269 -86.4369,86.441271 1.9391,3.64154 c 1.0665,2.00284 2.3291,3.8883 2.8059,4.18991 0.4767,0.30161 41.6526,-40.23565 91.502,-90.082811 L 1893.3856,0.11661 h 5.496 5.4959 l -94.2544,94.258399 -94.2545,94.258421 2.6283,3.86785 2.6283,3.86785 98.13,-98.126261 c 53.9716,-53.96944 98.6917,-98.126259 99.3782,-98.126259 0.8222,0 1.2481,1.62013 1.2481,4.74808 v 4.74808 l -96.46,96.50193 -96.46,96.50192 2.92,3.5 2.9199,3.5 93.5401,-93.49799 93.54,-93.498001 v 5.50006 5.50007 l -90.4776,90.473451 -90.4776,90.47344 3.1992,3.30074 3.1992,3.30074 87.2784,-87.27411 87.2784,-87.274121 v 6.0001 6.0001 l -83.5,83.495521 c -45.925,45.92253 -83.4944,83.72152 -83.4876,83.99775 0.01,0.27624 1.6466,1.56138 3.644,2.85587 l 3.6317,2.35362 79.8559,-79.85128 79.856,-79.851281 v 5.57648 5.57648 l -76,75.881801 c -41.8,41.73499 -76,76.15367 -76,76.48597 0,0.77126 6.6743,3.97459 8.2813,3.97459 0.6674,0 33.2772,-32.06132 72.4661,-71.24738 l 71.2526,-71.247391 v 5.500171 5.50016 l -67.5,67.49444 c -37.125,37.12194 -67.5,67.77471 -67.5,68.11726 0,0.34255 2.0662,1.20131 4.5915,1.90835 l 4.5914,1.28553 62.9086,-62.90259 62.9085,-62.9026 v 6.00026 6.00026 l -58,57.99353 c -31.9,31.89644 -58,58.29026 -58,58.65293 0,0.36267 2.3104,0.97715 5.1342,1.36553 l 5.1342,0.70613 52.8658,-52.85876 52.8658,-52.85875 v 5.50041 5.5004 l -47.5,47.49211 c -26.125,26.12066 -47.5,47.83138 -47.5,48.24605 0,0.41467 2.8105,0.75395 6.2455,0.75395 h 6.2456 l 41.2544,-41.24548 41.2545,-41.24548 v 5.49034 5.49034 l -35.75,35.86967 -35.75,35.86966 4.8896,-0.61453 c 2.6892,-0.33798 5.8213,-0.61452 6.9602,-0.61452 1.378,0 11.7008,-9.60918 30.8604,-28.72698 l 28.7898,-28.72697 v 5.48612 5.48613 l -20.5,20.4817 c -11.275,11.26494 -20.5,20.79142 -20.5,21.16995 0,0.37854 4.1625,-0.69512 9.25,-2.38591 9.176,-3.04957 9.34,-3.16255 20.5,-14.12378 l 11.25,-11.04962 v 10.18464 10.18465 l -9.25,4.60358 c -9.2444,4.60079 -9.2764,4.62989 -52.7651,48.01003 l -43.5151,43.40646 h -4.7349 c -2.6042,0 -4.7349,-0.33539 -4.7349,-0.74531 z m 81.5,-33.18158 33,-33.10063 0.3055,5.70116 0.3055,5.70115 -25.8055,25.89144 c -14.193,14.2403 -26.7055,26.25005 -27.8055,26.68835 -1.1,0.4383 -4.475,1.11692 -7.5,1.50804 l -5.5,0.71113 z m 15.5,9.53799 17.5,-17.65034 0.3083,5.19323 0.3083,5.19323 -9.6319,9.66813 c -8.9219,8.95556 -10.1608,9.8383 -16.8083,11.97682 -3.947,1.26978 -7.6264,2.52481 -8.1764,2.78897 -0.55,0.26416 6.875,-7.46236 16.5,-17.17004 z M 1626.3365,78.366609 c 3.1663,-12.95989 1.2433,-10.55292 36.4041,-45.56435 L 1695.5657,0.11661 h 5.9033 5.9032 l -40.4907,40.499999 c -22.2699,22.275 -40.6541,40.5 -40.8538,40.5 -0.1996,0 -0.061,-1.2375 0.3088,-2.75 z m 14.1257,-38.75 c 4.2495,-10.27364 10.5956,-19.25731 20.7037,-29.308299 L 1671.5327,0 l 5.192,0.30831 5.192,0.3083 -21.5545,21.499999 c -18.1279,18.08208 -21.2915,20.86411 -19.9,17.5 z"
       id="path851" />
  </g>
  <g
     id="layer1"
     transform="translate(-1619.8815)" />
</svg>
