<?xml version="1.0" encoding="UTF-8" standalone="no"?>
<!-- Created with Inkscape (http://www.inkscape.org/) -->

<svg
   version="1.1"
   id="svg2"
   width="281.94702"
   height="187.00441"
   viewBox="0 0 281.94702 187.00441"
   xmlns="http://www.w3.org/2000/svg"
   xmlns:svg="http://www.w3.org/2000/svg">
  <defs
     id="defs6" />
  <g
     id="g8">
    <path
       d="m 50.63173,184.6993 c -2.73373,-1.2338 -4.53373,-2.5122 -4,-2.8407 2.08456,-1.2832 66.80557,-27.7913 67.11018,-27.4867 0.17809,0.1781 -5.53132,4.7945 -12.68758,10.2587 -11.75402,8.9748 -14.47043,10.5388 -28.10968,16.1848 -8.30406,3.4375 -15.60324,6.2224 -16.2204,6.1887 -0.61715,-0.034 -3.35879,-1.0709 -6.09252,-2.3048 z M 24.38647,173.733 19.17079,171.4808 98.38647,138.8311 c 43.56862,-17.9573 78.50284,-32.1132 77.63159,-31.4576 -0.87125,0.6555 -7.62125,5.7383 -15,11.295 l -13.41591,10.103 -57.54659,23.647 c -31.65063,13.0058 -58.20063,23.6289 -59,23.6068 -0.79937,-0.022 -3.80046,-1.0537 -6.66909,-2.2923 z M 2.77309,164.7891 c -2.3556,-0.7852 -2.73555,-1.403 -2.47669,-4.027 l 0.30575,-3.0995 102,-42.0676 c 139.82856,-57.669 135.17837,-55.7799 133.5,-54.2338 -0.825,0.76 -7.125,5.6321 -14,10.827 l -12.5,9.4453 -89.5,36.8654 C 70.87715,138.7748 24.96667,157.6935 18.07885,160.5404 7.656,164.8484 5.08886,165.561 2.77309,164.7891 Z M 0.10215,141.2152 v -4.8502 l 140.25,-57.8956 c 77.1375,-31.8426 140.475,-57.8975 140.75,-57.8998 0.275,0 0.63796,1.1874 0.80658,2.6439 0.25484,2.201 -0.67348,3.4013 -5.5,7.1114 -4.95208,3.8066 -25.63783,12.6512 -140.56604,60.102 -74.1177,30.6012 -134.9802,55.6385 -135.25,55.6385 -0.26979,0 -0.49054,-2.1826 -0.49054,-4.8502 z m 0.19893,-21.3814 0.30107,-5.1633 138.88517,-57.334 C 215.87416,25.8028 278.47326,0.1291 278.59644,0.2839 c 0.12317,0.1549 0.47908,2.3065 0.7909,4.7815 l 0.56694,4.5 -126.09151,52 C 84.51245,90.1654 21.52274,116.1376 13.88564,119.2813 L 0,124.9972 Z M 0.10215,98.2794 c 0,-3.0677 0.48308,-5.1925 1.25,-5.4981 0.6875,-0.2739 51.58054,-21.261 113.09563,-46.6379 L 226.29342,0.0036 237.87195,0.2845 249.45049,0.5654 126.0302,51.4413 C 58.14905,79.423 2.04567,102.5336 1.35603,102.7983 0.45389,103.1444 0.10215,101.8768 0.10215,98.2794 Z M 0.3013,76.7879 0.60215,71.5915 87.39172,35.7971 174.18129,0.0027 185.77746,0.284 197.37363,0.5654 108.98789,36.9786 C 60.37574,57.0058 15.96677,75.325 10.3013,77.688 L 4.5e-4,81.9843 Z M 0.10215,55.2821 v -4.95 l 5.25,-2.196 C 8.23965,46.9283 35.63855,35.6035 66.2386,22.97 L 121.87504,0 l 11.56615,0.2827 11.56615,0.2827 -71.48837,29.5 C 34.20036,46.2904 1.5967,59.7154 1.06637,59.8988 0.53238,60.0834 0.10215,58.0234 0.10215,55.2821 Z M 0.30144,33.8186 0.60215,28.6607 35.31117,14.331 70.02018,0.0013 81.67557,0.2833 93.33096,0.5654 62.46655,13.253 C 45.49113,20.2311 24.49183,28.8736 15.80144,32.4585 L 7.2e-4,38.9765 Z M 0.10215,12.2724 V 7.2655 L 8.77238,3.636 c 8.53005,-3.5707 8.86276,-3.6249 20.57874,-3.35 l 11.90851,0.2794 -18.82874,7.699 c -10.3558,4.2345 -19.61624,7.9952 -20.57874,8.357 -1.52126,0.572 -1.75,0 -1.75,-4.349 z"
       style="fill:#fde047"
       id="path3150-3" />
  </g>
  <g
     id="layer1" />
</svg>
