<?xml version="1.0" standalone="no"?>
<!DOCTYPE svg PUBLIC "-//W3C//DTD SVG 20010904//EN"
 "http://www.w3.org/TR/2001/REC-SVG-20010904/DTD/svg10.dtd">
<svg version="1.0" xmlns="http://www.w3.org/2000/svg"
 width="2714.000000pt" height="2714.000000pt" viewBox="0 0 2714.000000 2714.000000"
 preserveAspectRatio="xMidYMid meet">
<metadata>
Created by potrace 1.14, written by Peter Selinger 2001-2017
</metadata>
<g transform="translate(0.000000,2714.000000) scale(0.100000,-0.100000)"
fill="#000000" stroke="none">
<path d="M15542 26959 c-193 -23 -389 -87 -637 -209 -290 -142 -520 -304 -731
-515 -337 -335 -570 -754 -729 -1310 -116 -404 -163 -763 -172 -1320 -6 -353
3 -553 38 -858 12 -98 19 -179 18 -181 -2 -1 -74 -12 -159 -24 -453 -62 -810
-153 -1180 -299 -180 -71 -437 -193 -570 -270 l-85 -50 -113 216 c-293 556
-613 1049 -905 1398 -149 176 -326 323 -496 407 -296 148 -742 177 -1138 75
-261 -67 -445 -159 -640 -322 -122 -102 -193 -189 -256 -316 -52 -103 -52
-104 -52 -200 0 -114 18 -159 96 -233 93 -87 307 -151 509 -151 247 0 408 77
560 269 109 137 211 379 260 616 12 56 28 120 37 141 l16 38 71 -7 c298 -27
515 -140 767 -401 176 -182 385 -457 649 -853 152 -229 462 -732 472 -766 2
-7 -49 -48 -112 -92 -840 -588 -1488 -1454 -1709 -2282 -110 -412 -137 -694
-151 -1540 -11 -667 -19 -870 -55 -1345 -42 -549 -48 -685 -42 -1010 4 -246
10 -339 26 -448 19 -119 76 -370 95 -418 6 -13 -4 -17 -61 -22 -137 -13 -352
-86 -479 -163 -223 -134 -482 -382 -661 -632 -240 -335 -413 -808 -440 -1199
-3 -50 -9 -97 -13 -103 -4 -7 -44 4 -122 34 -112 44 -216 76 -248 76 -8 0 -66
45 -128 100 -103 91 -255 210 -390 303 -61 43 -134 62 -207 53 -51 -6 -52 -5
-53 22 0 24 5 29 58 45 62 20 89 43 119 98 10 19 46 86 81 149 34 63 109 210
165 327 l103 212 47 -14 c119 -36 234 -29 373 25 92 35 170 97 205 164 29 56
29 162 0 228 -24 54 -90 128 -140 159 -45 28 -33 34 72 43 206 16 392 78 480
158 71 64 84 103 61 180 -53 185 -320 302 -612 269 -124 -14 -251 -49 -349
-95 -76 -36 -207 -130 -269 -194 l-38 -40 -91 136 c-148 225 -233 330 -294
366 -29 16 -309 45 -443 46 -138 0 -531 -22 -720 -41 -304 -30 -391 -54 -446
-125 -46 -59 -144 -229 -309 -534 -215 -400 -242 -466 -210 -526 8 -16 15 -35
15 -41 0 -7 36 -60 79 -117 l80 -105 -57 -11 c-31 -7 -95 -27 -142 -45 -243
-93 -412 -211 -532 -369 -110 -147 -146 -246 -127 -358 14 -84 54 -148 123
-194 177 -117 360 -62 620 187 l93 89 6 -94 c6 -106 25 -161 78 -221 65 -74
162 -95 247 -53 90 43 234 199 307 331 l37 67 54 -46 c30 -26 54 -50 54 -53 0
-4 23 -17 51 -29 36 -16 60 -21 85 -16 32 6 34 5 34 -23 0 -27 -3 -29 -68 -41
-160 -29 -293 -130 -370 -279 -71 -138 -77 -168 -77 -353 1 -153 2 -170 28
-243 28 -79 110 -250 153 -318 13 -21 24 -45 24 -53 0 -8 -16 -47 -35 -87 -61
-130 -70 -181 -70 -394 0 -177 2 -198 29 -300 57 -219 140 -370 285 -516 194
-196 447 -305 659 -284 158 16 354 70 480 134 50 25 73 30 177 36 145 8 297
29 391 53 69 18 69 18 99 -4 49 -36 876 -461 1002 -516 299 -128 565 -148 996
-72 119 21 387 80 450 100 15 5 14 -3 -11 -53 -179 -353 -197 -912 -45 -1323
58 -155 119 -277 199 -398 75 -112 223 -278 288 -323 28 -19 36 -32 41 -69 6
-47 66 -325 89 -420 105 -422 342 -911 580 -1193 l66 -78 -26 -42 c-14 -23
-53 -98 -86 -167 -33 -69 -75 -154 -93 -190 -77 -149 -320 -735 -462 -1115
-335 -895 -527 -1493 -682 -2125 -59 -241 -111 -495 -111 -548 0 -38 -5 -42
-100 -97 -193 -110 -454 -300 -650 -472 -143 -127 -537 -523 -655 -661 -125
-145 -129 -159 -99 -321 14 -75 38 -127 81 -180 7 -9 305 -40 493 -52 242 -14
856 -7 1170 15 1092 76 1526 119 1917 192 273 50 317 68 408 166 147 159 170
244 245 886 139 1195 253 1841 466 2637 52 198 113 437 135 530 22 94 62 244
89 335 27 91 58 194 68 230 13 48 23 65 35 64 9 0 57 -1 106 -2 l89 -2 16 -67
c23 -105 71 -442 116 -828 50 -424 71 -571 160 -1100 79 -469 128 -812 164
-1135 28 -243 38 -364 91 -1060 46 -589 58 -695 82 -729 11 -14 52 -52 91 -84
60 -48 83 -61 148 -77 73 -19 113 -20 693 -20 799 0 1110 18 1819 105 158 19
465 53 682 75 447 46 613 71 650 98 45 34 51 57 47 187 -5 119 -20 177 -59
225 -100 120 -878 672 -1270 901 l-128 74 -134 410 c-511 1559 -602 1949 -695
2980 -24 264 -28 414 -16 638 l8 168 171 172 c94 95 196 205 226 244 l55 73
110 35 c155 49 331 83 670 129 275 38 1042 103 1350 114 l179 7 23 40 c38 66
32 82 -34 101 -144 40 -200 57 -378 118 -504 171 -772 269 -918 336 -70 32
-246 126 -260 139 -4 5 35 29 88 54 111 54 156 83 283 185 195 154 324 308
410 484 122 250 180 548 169 868 -8 237 -47 423 -131 631 l-43 106 46 -14 c84
-26 257 -62 413 -87 300 -49 431 -60 688 -60 230 0 253 1 375 27 222 48 395
115 580 227 362 219 708 627 945 1115 238 492 353 989 352 1525 -1 672 -221
1271 -606 1650 -36 35 -66 67 -66 71 0 4 43 69 96 145 276 399 497 800 678
1228 60 143 235 387 319 444 23 16 121 68 217 115 287 141 410 208 515 282
177 122 240 193 370 410 111 185 147 231 186 239 77 15 179 78 359 223 280
224 353 268 555 332 152 49 256 104 325 172 112 110 240 301 330 492 90 191
112 278 146 572 10 83 19 151 20 153 1 2 33 -6 70 -18 99 -30 241 -38 298 -16
64 25 119 90 157 190 27 68 32 95 32 171 2 161 -45 241 -180 313 l-63 33 63
58 c73 69 119 141 154 242 57 166 0 259 -159 259 -68 0 -185 -27 -261 -59
l-45 -19 -12 60 c-56 285 -276 621 -505 773 -101 67 -185 109 -372 186 -327
134 -434 207 -703 479 -164 166 -205 202 -260 229 -161 78 -289 64 -748 -83
-242 -77 -397 -134 -632 -231 -97 -40 -274 -112 -394 -160 -121 -47 -253 -104
-295 -125 -314 -158 -480 -420 -635 -1006 l-38 -140 -81 42 c-123 64 -222 94
-307 94 -187 0 -299 -86 -286 -220 8 -88 66 -191 159 -283 43 -44 77 -80 75
-81 -2 -2 -34 -20 -73 -41 -164 -89 -302 -211 -351 -311 -25 -50 -29 -71 -29
-139 0 -74 3 -86 39 -153 66 -124 163 -190 309 -213 39 -6 98 -9 130 -5 42 4
59 2 61 -7 2 -6 10 -49 19 -94 8 -46 31 -120 51 -165 l35 -82 -25 -33 c-14
-18 -36 -57 -49 -86 -43 -94 -48 -160 -37 -547 9 -294 14 -374 32 -465 25
-126 68 -245 109 -303 l29 -39 -46 -39 c-113 -94 -267 -253 -552 -569 -469
-520 -808 -870 -1050 -1085 l-68 -61 73 158 c535 1149 667 2109 449 3263 -88
468 -280 1058 -493 1520 -220 475 -524 917 -865 1255 -443 440 -1012 739
-1750 920 -506 124 -909 170 -1489 170 -309 0 -358 2 -362 15 -2 8 -9 137 -15
287 -24 611 42 1326 166 1801 206 791 555 1311 1138 1697 182 120 428 240 591
289 l45 14 0 -52 c0 -194 226 -673 419 -887 93 -104 188 -151 341 -170 154
-18 267 18 370 120 115 113 180 275 180 447 0 154 -42 284 -138 427 -84 124
-212 218 -403 296 -207 84 -416 114 -627 90z m-1287 -4769 c218 -14 349 -28
535 -56 574 -88 1143 -267 1471 -464 386 -232 683 -514 979 -929 423 -592 781
-1567 875 -2378 85 -734 -3 -1424 -276 -2171 -299 -816 -686 -1448 -1136
-1854 -170 -153 -321 -271 -503 -392 -184 -123 -198 -131 -448 -231 -152 -61
-216 -81 -300 -95 -179 -30 -246 -33 -387 -16 -426 51 -982 64 -1430 32 -218
-16 -665 -68 -860 -102 -456 -78 -1006 -219 -1320 -337 -104 -40 -115 -42
-207 -40 -89 2 -106 6 -215 48 -392 154 -638 315 -962 630 -245 239 -365 394
-473 610 -140 279 -189 487 -204 860 -9 248 7 552 61 1100 56 576 69 784 85
1355 27 983 98 1423 311 1924 251 588 648 1098 1191 1528 95 76 332 248 341
248 2 0 48 -75 100 -167 121 -213 189 -317 220 -338 27 -17 57 -11 57 12 0 21
-45 130 -151 369 -50 114 -87 209 -83 214 20 19 268 151 380 203 413 191 761
298 1219 377 207 35 265 43 265 36 0 -3 9 -54 21 -113 28 -151 58 -264 75
-290 15 -23 48 -31 59 -14 3 6 -1 61 -9 123 -9 63 -18 157 -22 210 -7 96 -7
97 17 102 67 16 521 19 724 6z m8220 -467 c41 -13 72 -40 194 -166 282 -288
461 -406 836 -547 212 -79 337 -147 426 -229 251 -231 359 -510 346 -891 -6
-164 -12 -214 -82 -710 -57 -395 -78 -518 -110 -618 -45 -142 -195 -411 -306
-548 -85 -103 -145 -139 -355 -209 -200 -67 -286 -117 -570 -336 -236 -180
-294 -204 -544 -220 -272 -18 -469 11 -794 117 -109 36 -264 78 -345 95 -272
54 -337 89 -543 285 -78 74 -147 134 -154 134 -19 0 -22 9 -34 106 -6 49 -17
114 -25 144 -8 30 -12 56 -10 58 2 3 17 -7 32 -21 152 -138 362 -286 508 -357
92 -45 197 -83 445 -159 179 -55 361 -109 405 -120 282 -71 519 -68 741 10
107 37 370 163 514 246 58 33 159 88 225 121 144 72 229 133 286 204 53 67 99
163 99 206 0 29 -3 33 -20 27 -15 -5 -38 5 -78 31 l-58 37 41 78 c22 43 46 81
53 84 7 2 32 -5 56 -17 42 -20 44 -23 43 -62 -2 -49 22 -60 59 -25 36 34 94
232 113 387 9 70 5 96 -11 86 -10 -6 -118 34 -118 45 0 3 9 38 19 76 l18 70
61 -3 c34 -1 62 1 62 5 0 4 -24 9 -53 11 -28 2 -55 6 -58 10 -8 8 12 127 23
137 4 4 30 4 57 0 l51 -7 0 -46 c0 -25 4 -42 8 -36 10 10 57 165 71 234 55
258 74 660 38 830 -26 128 -84 237 -171 325 -107 109 -193 160 -518 310 -205
95 -397 220 -585 382 -125 109 -238 164 -300 148 -33 -8 -21 -18 45 -40 40
-13 74 -37 145 -102 105 -98 210 -185 280 -232 l48 -33 -27 -46 c-15 -26 -28
-48 -29 -50 -2 -2 -66 45 -145 107 l-25 19 24 42 c13 23 21 43 19 46 -3 2 -15
-14 -27 -36 l-23 -40 -31 26 c-18 15 -54 47 -81 71 l-50 44 12 46 c7 25 10 48
8 51 -3 2 -10 -16 -17 -41 l-11 -45 -61 29 c-34 16 -83 32 -109 35 l-48 7 -2
61 -2 61 -3 -62 c-2 -35 -7 -63 -11 -63 -20 -1 -197 -31 -260 -44 -40 -9 -75
-16 -78 -16 -3 0 -4 23 -2 51 l3 50 55 19 c30 11 60 19 66 20 6 0 17 -21 25
-47 7 -26 14 -42 16 -36 2 6 -2 29 -10 51 l-14 40 89 38 c48 20 87 39 84 41
-11 11 -297 -34 -495 -78 -318 -71 -488 -125 -759 -239 -147 -63 -221 -112
-319 -213 -95 -97 -175 -217 -245 -365 -52 -110 -65 -171 -38 -180 8 -3 12 -1
8 3 -7 8 27 82 69 148 l24 38 32 -23 c50 -38 66 -43 27 -9 -19 17 -38 31 -42
31 -15 0 -8 17 32 79 l41 63 25 -39 c15 -21 35 -47 45 -59 19 -21 19 -21 -36
-110 -30 -49 -58 -95 -62 -102 -6 -10 -18 -5 -51 19 -24 17 -45 29 -48 26 -3
-2 10 -14 28 -26 18 -11 39 -25 47 -30 12 -8 11 -19 -9 -70 -21 -58 -32 -71
-44 -52 -3 4 -26 14 -51 21 -25 7 -45 19 -45 26 0 23 -26 4 -43 -32 -20 -40
-24 -105 -6 -87 8 8 19 9 38 1 14 -6 40 -16 57 -22 l31 -12 -24 -66 -25 -66
-57 21 c-49 18 -57 24 -53 42 4 25 -31 41 -47 21 -16 -20 -118 -288 -154 -406
-68 -219 -137 -485 -137 -523 0 -47 18 -46 40 2 l15 33 63 -5 c35 -3 65 -7 68
-9 2 -3 -2 -34 -10 -69 -8 -35 -17 -92 -21 -127 -4 -35 -12 -65 -19 -66 -65
-18 -129 -40 -121 -42 6 -2 37 5 70 15 l60 19 12 -77 c7 -42 20 -96 29 -120
15 -40 15 -44 1 -53 -9 -5 -36 -24 -61 -43 -53 -40 -50 -44 -76 102 -10 56
-23 110 -28 119 -9 16 -12 13 -27 -21 -31 -70 -31 -177 0 -257 5 -13 -2 -13
-62 0 -43 9 -100 12 -155 9 l-88 -4 -30 78 c-45 118 -53 169 -47 304 7 151 27
226 124 465 156 382 159 392 297 902 83 306 158 470 275 600 108 120 229 192
476 288 61 24 229 90 375 147 146 58 308 121 360 139 115 42 581 188 665 208
83 20 200 20 260 -1z m-577 -470 l-3 -46 -94 -25 c-104 -27 -111 -25 -111 35
0 30 3 33 53 47 167 47 159 48 155 -11z m-224 -25 c3 -7 7 -27 10 -44 l5 -31
-82 -22 c-45 -12 -87 -21 -92 -21 -13 0 -39 69 -30 78 8 9 144 50 168 51 10 1
19 -5 21 -11z m809 -29 c32 -17 92 -64 177 -140 160 -143 246 -200 570 -379
116 -64 213 -136 305 -226 81 -80 105 -111 165 -214 25 -41 50 -78 57 -83 17
-11 33 -73 33 -131 0 -51 18 -116 32 -116 4 0 8 33 8 74 l0 73 58 17 c32 9 64
16 70 16 8 0 12 -29 12 -98 l0 -99 -67 -16 c-59 -14 -62 -15 -19 -11 27 3 55
8 62 11 16 6 19 -49 8 -131 l-7 -46 -58 0 c-58 0 -59 1 -59 28 0 15 -5 34 -10
42 -7 10 -10 -20 -10 -95 0 -288 -68 -608 -197 -925 -58 -144 -141 -310 -155
-310 -4 0 -8 -6 -8 -14 0 -25 -130 -149 -250 -238 -151 -113 -241 -166 -400
-238 -73 -33 -169 -82 -213 -109 -79 -46 -183 -91 -211 -91 -8 0 -31 -8 -52
-17 l-39 -17 29 -5 c25 -5 32 -14 48 -60 10 -30 16 -56 14 -58 -7 -7 -195 -27
-201 -22 -3 3 -8 19 -11 36 -5 28 -3 31 28 38 l33 8 -30 7 c-16 4 -48 8 -71 9
-55 1 -332 73 -453 117 -53 19 -146 53 -208 74 -109 39 -132 48 -320 136 -103
47 -325 194 -435 288 -40 34 -93 77 -118 96 -143 109 -225 188 -270 257 -70
107 -90 174 -90 305 0 139 39 294 180 723 242 731 313 872 559 1106 120 114
130 135 39 81 -28 -16 -30 -16 -40 2 -6 10 -26 36 -44 56 l-34 38 22 14 c13 9
46 27 75 42 l52 26 31 -45 c17 -24 36 -47 43 -52 6 -4 -5 17 -26 46 -21 29
-37 54 -35 55 11 9 141 56 152 56 8 0 20 -16 26 -36 7 -19 14 -33 17 -31 2 3
-3 21 -11 41 -15 36 -15 37 12 47 57 23 196 69 207 69 7 0 19 -18 27 -39 l16
-39 -77 -27 c-101 -36 -241 -101 -241 -113 0 -5 30 2 68 15 230 85 871 229
1087 245 48 4 117 -7 148 -23z m646 -261 c20 -12 37 -22 39 -24 2 -1 -4 -27
-13 -58 l-16 -56 -49 25 -48 24 19 38 c10 20 19 45 19 55 0 23 5 23 49 -4z
m105 -57 c23 -10 54 -24 69 -30 l29 -11 -27 -48 c-39 -66 -37 -66 -86 -32 -24
16 -50 30 -56 30 -7 0 -13 4 -13 8 0 15 32 102 37 102 3 0 24 -8 47 -19z
m-2365 -140 c-22 -30 -43 -39 -53 -23 -2 4 -26 22 -53 41 -48 32 -28 10 35
-39 l31 -25 -43 -49 -43 -49 -41 58 c-23 32 -42 61 -42 65 0 3 30 39 67 79
l66 73 50 -50 49 -50 -23 -31z m2558 57 c40 -18 72 -36 73 -40 0 -4 -16 -32
-35 -62 -19 -30 -35 -59 -35 -63 0 -4 19 20 41 55 23 34 46 62 51 62 14 0 148
-80 148 -88 0 -3 -28 -36 -62 -71 l-63 -65 53 43 c28 24 60 53 70 66 l19 24
54 -43 c88 -69 87 -68 32 -119 -26 -24 -61 -55 -76 -68 l-29 -24 -96 96 c-58
57 -136 122 -192 159 -52 34 -96 63 -98 65 -5 4 59 105 66 105 4 0 39 -14 79
-32z m474 -382 c50 -106 48 -112 -48 -151 l-82 -33 -29 51 c-22 38 -27 56 -19
67 10 15 138 130 145 130 2 0 17 -29 33 -64z m57 -221 c5 -44 7 -83 3 -86 -8
-8 -132 -42 -135 -37 -1 2 -10 30 -20 63 -9 33 -19 67 -22 75 -4 11 16 23 73
46 43 17 81 28 85 25 3 -3 11 -42 16 -86z m784 -90 c-4 -35 -41 -101 -84 -151
-38 -43 -139 -116 -191 -138 l-38 -15 3 157 3 157 65 12 c36 6 106 10 155 10
l90 -2 -3 -30z m-5066 -19 l111 -27 -25 -87 c-13 -48 -28 -91 -33 -96 -12 -14
-115 10 -186 43 -67 32 -146 98 -169 142 -19 37 -19 37 19 48 49 16 160 6 283
-23z m745 -43 c27 -10 49 -23 49 -29 0 -15 -41 -126 -50 -137 -4 -4 -29 -2
-57 4 l-50 12 26 83 c13 46 27 84 29 84 2 0 26 -8 53 -17z m-20 -182 c15 -5
15 -11 -2 -68 l-20 -63 -59 0 -59 0 25 74 25 75 37 -6 c20 -3 44 -9 53 -12z
m-31 -147 c0 -4 -5 -24 -12 -46 l-11 -39 -57 3 -57 3 9 30 c5 16 11 36 14 43
3 12 114 18 114 6z m3574 -76 c-10 -100 -9 -98 -64 -98 l-50 0 0 73 0 72 60 3
59 3 -5 -53z m-4368 -174 c-30 -76 -65 -183 -77 -236 l-24 -97 -45 -12 c-58
-16 -155 -15 -206 1 -65 21 -114 79 -114 135 0 51 162 190 310 265 57 30 203
90 207 86 2 -2 -21 -66 -51 -142z m4910 112 c74 -25 162 -67 205 -97 52 -37
44 -169 -13 -235 -26 -30 -36 -34 -77 -34 -63 0 -151 24 -192 52 l-34 23 12
105 c20 177 24 210 27 210 1 0 34 -11 72 -24z m-4176 -48 c0 -6 -7 -35 -16
-63 l-17 -52 -52 16 -52 15 16 48 15 48 53 0 c34 0 53 -4 53 -12z m3610 -153
l0 -75 -47 6 c-27 4 -51 9 -55 13 -4 3 -4 34 -1 69 l6 62 48 0 49 0 0 -75z
m-3677 33 c22 -9 27 -16 23 -32 -3 -12 -13 -51 -23 -88 l-17 -67 -66 6 c-36 3
-66 6 -67 7 -1 1 14 46 35 99 41 107 39 105 115 75z m3567 -467 l37 -17 -28
-73 c-15 -40 -30 -75 -32 -77 -2 -2 -26 4 -53 13 l-50 16 25 83 c28 92 24 90
101 55z m-77 -167 c26 -9 47 -20 47 -25 0 -9 -40 -112 -46 -118 -2 -2 -24 7
-49 20 -40 21 -45 27 -40 48 8 31 33 91 38 91 2 0 24 -7 50 -16z m-3399 -239
l33 -40 -43 -32 -43 -32 -75 75 c-42 41 -76 82 -76 92 0 9 24 34 52 54 l51 38
35 -58 c19 -31 49 -75 66 -97z m324 -279 c45 -37 82 -71 82 -74 0 -10 -53 -62
-63 -62 -5 0 -39 23 -76 52 -36 29 -68 53 -70 55 -3 2 4 13 15 26 42 47 46 60
8 24 l-40 -37 -51 37 -50 38 36 41 36 41 45 -36 c25 -20 82 -67 128 -105z
m2904 107 c32 -21 58 -41 58 -44 0 -10 -111 -128 -142 -150 l-31 -22 -42 49
-43 49 47 50 c26 28 55 62 65 78 10 15 21 27 24 27 3 0 32 -17 64 -37z m-3587
7 c109 -25 195 -82 230 -150 50 -100 67 -176 71 -335 4 -136 28 -512 38 -592
3 -18 12 -48 22 -68 14 -30 21 -36 43 -33 20 2 29 13 43 48 14 37 17 82 18
250 0 113 4 211 9 218 5 9 41 -23 124 -111 202 -216 305 -272 612 -338 55 -11
176 -45 269 -75 314 -102 462 -127 749 -125 l198 0 -23 -40 c-33 -59 -160
-225 -216 -284 -34 -35 -84 -69 -163 -111 -63 -33 -190 -107 -284 -165 -93
-58 -255 -147 -360 -199 -104 -51 -207 -107 -228 -124 -92 -73 -232 -271 -352
-496 -259 -488 -539 -946 -755 -1235 -37 -49 -106 -146 -155 -215 -191 -269
-557 -724 -817 -1015 -347 -388 -916 -980 -1573 -1635 -447 -446 -655 -663
-714 -745 -16 -24 -25 -52 -28 -88 -2 -28 -10 -169 -18 -311 -9 -143 -17 -261
-19 -263 -2 -2 -58 19 -124 46 -524 215 -1143 337 -1892 372 -1124 52 -3019
-221 -3838 -553 -68 -27 -125 -48 -127 -46 -2 2 7 42 21 88 86 294 176 707
244 1115 22 138 44 258 47 269 6 20 135 84 375 187 270 114 538 202 903 293
606 152 1145 235 1870 288 258 19 851 15 1065 -6 325 -32 649 -97 915 -183 61
-19 121 -38 135 -42 16 -5 40 -32 69 -79 24 -40 46 -71 48 -69 6 6 -57 290
-81 367 -14 41 -36 118 -50 170 -44 166 -152 430 -276 680 -64 129 -115 249
-109 254 2 2 51 24 108 51 426 193 970 611 1257 965 166 205 395 530 498 707
43 74 56 88 141 148 417 296 913 774 1410 1360 65 77 149 181 187 230 37 50
106 135 152 190 81 96 98 127 76 140 -18 11 -58 99 -74 162 -20 77 -42 269
-55 488 -6 94 -15 186 -21 205 -19 66 -12 192 15 279 23 71 31 85 71 115 28
22 65 39 97 45 29 5 61 12 72 14 40 9 66 7 150 -13z m3423 -180 l43 -49 -50
-26 c-27 -13 -75 -36 -105 -49 l-55 -25 -22 36 -22 36 28 20 c15 12 51 40 79
63 28 24 53 43 56 43 3 1 24 -21 48 -49z m-2578 -53 c25 -17 47 -32 49 -33 3
-2 -32 -66 -46 -83 -2 -2 -32 15 -67 39 l-65 44 31 38 c17 22 35 35 41 31 7
-3 32 -20 57 -36z m2381 -64 c7 -16 15 -31 17 -35 2 -5 -2 -8 -10 -8 -7 0 -60
-27 -118 -59 l-105 -59 -22 20 -23 21 52 30 51 29 19 -23 19 -24 -13 28 c-10
24 -10 30 2 37 8 5 33 22 55 39 49 38 58 38 76 4z m-2234 -34 c43 -28 79 -54
81 -58 5 -15 -60 -62 -77 -56 -33 12 -123 70 -128 82 -4 11 33 83 43 83 2 0
38 -23 81 -51z m213 -118 c0 -3 -13 -21 -28 -38 l-27 -33 -60 27 c-33 15 -62
28 -64 30 -3 2 10 18 28 37 l33 34 59 -26 c32 -14 59 -28 59 -31z m188 -76 c2
-2 -4 -17 -12 -33 l-16 -31 -62 21 c-35 11 -66 23 -70 27 -4 3 2 20 13 38 l20
31 62 -25 c34 -14 63 -26 65 -28z m1505 30 l17 -24 -70 -42 c-39 -23 -72 -40
-74 -38 -1 2 -13 19 -25 37 l-22 32 63 30 c76 36 88 37 111 5z m-1403 -60 l80
-26 -15 -29 c-9 -17 -21 -30 -29 -30 -10 0 -82 22 -143 45 -9 3 -8 12 3 34 9
17 17 31 19 31 2 0 40 -11 85 -25z m1248 -20 l21 -34 -53 -31 c-30 -16 -58
-30 -63 -30 -5 0 -22 13 -37 29 l-27 29 58 36 c32 19 63 36 70 36 6 0 20 -16
31 -35z m-1092 -39 c54 -22 59 -27 57 -53 l-2 -28 10 26 9 25 75 -20 c69 -19
75 -23 75 -48 0 -15 -3 -29 -7 -31 -9 -5 -297 84 -308 94 -7 7 15 59 25 59 4
0 33 -11 66 -24z m953 -32 c12 -15 21 -30 21 -34 0 -8 -144 -76 -182 -85 -23
-6 -27 -3 -42 41 -9 26 -15 48 -13 50 1 1 28 7 59 13 32 6 70 17 85 25 39 21
49 20 72 -10z m-626 -65 c32 -9 37 -14 37 -40 0 -29 -1 -30 -37 -23 -83 15
-88 18 -91 53 -4 37 -10 36 91 10z m197 -31 c0 -7 3 -23 6 -35 5 -19 2 -23
-17 -23 -51 0 -69 11 -69 41 0 27 3 29 40 29 25 0 40 -5 40 -12z m-15731
-2594 c75 -111 176 -255 224 -320 49 -65 124 -170 167 -233 78 -111 79 -113
66 -145 -8 -17 -54 -123 -104 -236 -127 -289 -178 -415 -232 -570 l-48 -135
-63 -3 c-35 -1 -118 -9 -184 -16 -66 -8 -183 -20 -260 -26 -77 -6 -239 -21
-361 -33 -204 -21 -225 -21 -281 -7 -76 19 -92 30 -213 146 -164 158 -700 739
-700 759 0 23 230 491 305 620 25 44 74 135 107 203 44 88 65 121 76 117 15
-5 467 34 732 65 111 13 222 17 394 16 l239 -1 136 -201z m1204 1 c38 -8 92
-25 121 -38 57 -26 129 -91 123 -110 -6 -20 -107 -54 -207 -71 -52 -9 -228
-27 -390 -41 -162 -13 -317 -27 -345 -30 -49 -6 -50 -5 -78 35 -34 49 -33 51
62 114 126 83 246 134 356 149 76 10 295 6 358 -8z m-505 -496 c176 -46 312
-156 312 -252 0 -33 -57 -84 -121 -109 -62 -23 -279 -39 -279 -20 0 6 10 32
21 59 15 34 22 71 23 128 1 78 0 82 -41 149 -24 37 -43 70 -43 72 0 5 30 -1
128 -27z m2255 -171 c14 -24 53 -92 87 -153 101 -177 149 -244 255 -354 191
-199 500 -435 791 -607 167 -98 408 -191 597 -230 48 -10 87 -21 87 -24 0 -3
-25 -13 -56 -23 -31 -9 -63 -24 -71 -32 -8 -8 -23 -15 -33 -15 -11 0 -99 -34
-195 -75 -97 -41 -178 -75 -181 -75 -5 0 -446 -166 -505 -190 -69 -29 -173
-48 -294 -54 -116 -6 -169 -25 -70 -25 31 0 59 -1 61 -4 8 -7 -460 -145 -696
-205 -63 -16 -200 -54 -305 -84 -161 -47 -283 -79 -357 -93 -9 -1 -52 17 -95
41 -43 25 -185 97 -315 162 l-237 117 -1 87 c0 155 74 507 147 692 81 206 223
439 399 656 136 167 315 315 485 400 75 38 243 100 334 125 6 1 40 3 77 4 l67
1 24 -42z m10802 -410 c201 -219 328 -451 410 -748 73 -266 101 -501 92 -790
-12 -382 -86 -738 -224 -1085 -135 -341 -297 -602 -530 -858 -325 -356 -713
-563 -1117 -596 -320 -25 -962 58 -1317 171 l-167 53 -43 55 c-121 156 -273
299 -379 358 l-48 27 -16 80 -15 80 57 54 c31 29 152 135 267 234 270 232 717
632 910 813 82 77 180 168 217 203 37 34 82 66 100 72 18 5 143 32 278 60 135
27 281 59 325 70 112 27 457 133 447 137 -10 3 -871 -169 -957 -192 l-57 -15
254 257 c601 610 947 1008 1376 1585 23 31 47 57 52 57 5 0 43 -37 85 -82z
m-15607 -162 l70 -78 -71 -92 c-147 -189 -194 -244 -306 -356 -225 -225 -369
-284 -497 -204 -69 42 -87 73 -92 148 -4 54 0 74 22 121 80 175 226 309 460
421 111 53 311 126 333 121 6 -1 43 -37 81 -81z m355 -479 c-82 -164 -199
-300 -271 -313 -73 -14 -122 44 -130 155 -8 111 44 247 151 396 l50 70 118
-118 119 -118 -37 -72z m1329 -183 c-22 -59 -42 -68 -172 -84 -235 -27 -276
-29 -326 -15 -27 7 -40 14 -29 14 69 5 166 22 200 37 l40 18 -30 7 c-53 12
-227 9 -330 -6 -93 -13 -101 -13 -113 3 -12 16 4 18 230 29 134 7 302 19 373
27 196 20 177 24 157 -30z m5601 -88 c235 -123 281 -152 273 -172 -3 -7 -17
-53 -32 -101 -15 -49 -39 -115 -54 -148 -16 -33 -31 -75 -35 -92 -4 -18 -10
-35 -15 -38 -5 -3 -18 -26 -31 -53 -12 -26 -25 -49 -29 -52 -3 -3 -14 -18 -24
-34 -34 -54 -159 -186 -175 -186 -6 0 -11 -4 -11 -10 0 -5 -30 -30 -67 -54
-53 -35 -108 -58 -253 -104 l-185 -58 -48 94 c-50 98 -137 235 -181 286 -14
16 -24 31 -22 35 10 17 76 163 76 167 0 3 15 37 34 77 19 40 51 111 71 160 21
48 42 87 49 87 6 0 126 56 266 125 140 68 263 124 273 124 10 1 64 -23 120
-53z m-5338 -87 c51 -9 68 -19 134 -77 82 -71 194 -146 307 -207 40 -21 112
-70 160 -108 118 -93 364 -209 867 -407 927 -364 904 -355 940 -346 41 10 46
35 12 62 -33 26 -34 25 70 49 320 72 865 257 1270 430 186 79 570 265 733 355
84 45 93 48 86 28 -10 -32 -162 -327 -186 -360 -20 -29 -18 -72 5 -109 8 -13
3 -43 -21 -121 -67 -222 -104 -397 -177 -838 -44 -261 -123 -674 -145 -750 -9
-34 -13 -36 -82 -54 -87 -22 -228 -64 -598 -179 -758 -235 -1170 -315 -1484
-287 -191 17 -271 43 -918 306 -203 82 -368 151 -368 154 0 3 27 20 59 37 33
18 76 51 97 73 42 44 80 100 69 100 -26 0 -162 -48 -225 -80 -114 -57 -328
-120 -490 -146 l-45 -7 50 40 c113 91 239 252 300 386 23 50 47 173 61 317 l6
55 -76 -80 c-42 -44 -115 -132 -163 -195 -189 -253 -355 -384 -583 -461 -121
-41 -268 -51 -370 -24 -88 22 -233 94 -301 149 -185 149 -308 437 -309 721 0
188 44 331 114 375 36 22 37 24 30 64 -4 27 -26 69 -64 121 -76 105 -164 264
-191 345 -42 129 -40 297 7 399 38 85 86 136 161 173 65 32 72 33 210 37 141
3 224 -4 394 -36 l86 -16 -64 -81 c-185 -232 -292 -626 -239 -877 30 -139 120
-257 224 -294 65 -23 225 -31 293 -15 167 38 335 167 445 338 21 34 42 62 45
62 4 0 10 -15 13 -33 3 -18 53 -125 109 -237 57 -113 116 -238 131 -278 23
-60 31 -71 42 -61 24 20 17 123 -17 248 -54 204 -126 332 -212 381 l-54 30 15
80 c8 45 12 83 9 86 -14 14 -114 -62 -232 -177 -236 -229 -374 -284 -498 -197
-39 28 -56 66 -69 157 -21 150 20 368 102 537 81 168 250 358 374 420 78 39
72 38 151 23z m-477 -15 c-10 -10 -23 -14 -34 -10 -16 6 -16 8 -4 16 8 6 24
10 35 10 18 0 18 -1 3 -16z m11000 -2699 c97 -115 224 -307 274 -413 49 -104
125 -336 138 -422 18 -114 23 -378 11 -495 -53 -490 -226 -813 -579 -1078 -87
-65 -187 -127 -206 -127 -3 0 2 19 10 43 39 110 145 578 158 702 3 28 17 117
31 198 14 82 25 180 25 218 l0 69 38 1 c44 0 148 21 158 32 4 4 -35 7 -87 7
l-94 0 -1 423 c-1 461 -18 820 -49 1002 -5 29 -5 29 46 -20 28 -28 85 -90 127
-140z m-6578 -107 c-10 -29 -69 -205 -130 -391 -146 -442 -132 -411 -182 -403
-44 7 -158 -11 -158 -25 0 -5 43 -9 96 -9 73 0 95 -3 91 -12 -21 -56 -86 -281
-118 -407 -35 -140 -58 -285 -88 -550 -5 -51 -13 -96 -16 -100 -16 -15 -160
197 -215 314 -61 133 -137 344 -155 433 -50 250 7 658 127 909 31 65 100 138
159 168 48 25 322 105 394 114 33 5 95 9 137 10 l77 1 -19 -52z m2820 -1573
c945 -80 1705 -265 2498 -606 177 -77 436 -203 475 -231 17 -13 14 -23 -42
-188 -137 -402 -377 -840 -640 -1170 -192 -240 -369 -411 -701 -675 -93 -74
-170 -141 -170 -149 0 -24 28 -39 63 -33 57 9 192 67 320 137 l122 68 2 -77
c4 -120 21 -331 43 -516 11 -93 33 -296 50 -450 88 -800 209 -1308 618 -2585
61 -190 122 -382 136 -426 15 -48 37 -94 54 -111 48 -53 144 -119 272 -189
210 -114 691 -431 877 -578 l103 -81 -78 -7 c-488 -47 -647 -64 -887 -94 -726
-90 -989 -109 -1709 -124 -253 -6 -514 -13 -581 -16 l-121 -7 -13 259 c-56
1169 -131 1755 -362 2792 -27 123 -79 362 -115 530 -112 531 -214 907 -290
1081 -13 29 -24 55 -24 56 0 1 39 6 88 9 200 16 370 60 528 136 66 32 92 52
147 113 36 41 64 77 60 81 -16 16 -161 4 -285 -24 -307 -68 -475 -64 -1013 26
-879 146 -1670 603 -2067 1194 -44 65 -151 286 -203 420 -132 337 -191 607
-202 921 l-6 175 94 36 c427 162 1086 277 1829 318 230 13 912 4 1130 -15z
m-2180 -2762 c367 -263 876 -474 1343 -558 53 -10 97 -22 97 -27 0 -5 -29 -97
-64 -203 -36 -107 -84 -265 -106 -352 -23 -87 -95 -345 -160 -573 -233 -820
-348 -1437 -490 -2643 -47 -403 -69 -546 -90 -603 -11 -29 -34 -38 -154 -64
-412 -87 -868 -135 -2046 -215 -285 -20 -814 -30 -1035 -20 l-169 7 224 222
c301 297 535 483 843 668 121 73 207 142 207 167 0 5 9 16 21 24 48 34 71 102
90 271 43 360 204 1043 414 1755 143 483 441 1414 505 1576 50 126 220 487
287 612 l67 122 55 -45 c31 -25 103 -79 161 -121z"/>
<path d="M15045 19390 c-200 -31 -434 -149 -563 -284 -43 -45 -62 -72 -62 -90
0 -45 28 -40 192 39 241 115 410 155 589 141 223 -18 340 -102 499 -360 49
-79 105 -157 133 -183 46 -43 51 -45 90 -39 47 8 102 39 111 62 23 61 -135
345 -264 474 -93 93 -231 183 -333 216 -67 22 -105 27 -207 30 -69 1 -152 -1
-185 -6z"/>
<path d="M11318 18850 c-304 -75 -541 -319 -663 -683 -20 -59 -39 -130 -42
-157 -6 -48 -5 -50 20 -50 30 0 49 22 177 214 154 231 295 361 476 436 115 48
207 51 399 12 202 -41 198 -41 258 -30 131 24 139 66 29 145 -157 112 -451
163 -654 113z"/>
<path d="M14904 18666 c-107 -48 -190 -141 -267 -298 -146 -296 -154 -604 -27
-1110 52 -205 83 -289 137 -371 78 -118 140 -150 283 -148 91 1 99 3 190 47
143 69 194 135 239 309 35 139 44 247 38 435 -11 300 -50 509 -136 721 -62
152 -99 213 -181 297 -101 105 -206 150 -276 118z m66 -266 c45 0 94 -50 121
-122 33 -88 33 -252 0 -321 -41 -84 -136 -118 -222 -80 -58 26 -138 100 -166
153 -51 95 -18 238 70 298 69 48 140 83 155 77 7 -3 27 -5 42 -5z"/>
<path d="M11425 18278 c-40 -14 -116 -71 -152 -112 -70 -79 -159 -281 -195
-443 -21 -91 -23 -123 -23 -453 l0 -355 28 -120 c67 -279 182 -472 325 -542
51 -25 67 -28 162 -28 95 0 110 3 163 29 170 84 297 361 329 714 28 318 -46
739 -173 983 -57 108 -193 253 -281 297 -71 36 -138 47 -183 30z m120 -223
c21 -8 39 -25 45 -40 16 -43 11 -193 -10 -294 -31 -153 -82 -232 -147 -231
-69 2 -201 137 -223 228 -32 134 66 284 217 332 72 23 75 23 118 5z"/>
<path d="M14319 15982 c-8 -4 -70 -54 -137 -112 -259 -222 -551 -406 -736
-465 -182 -58 -259 -69 -453 -67 -94 1 -192 6 -217 12 -62 14 -92 1 -98 -41
-6 -38 46 -247 91 -368 68 -183 184 -391 272 -486 45 -49 153 -125 215 -152
328 -139 902 -56 1173 169 104 87 160 184 202 348 20 80 24 118 23 240 0 157
-14 247 -64 422 -63 220 -175 474 -220 498 -21 11 -28 12 -51 2z m-30 -360
c56 -141 110 -320 127 -422 8 -47 14 -141 14 -210 0 -256 -62 -366 -263 -463
-177 -86 -349 -122 -557 -114 -154 5 -239 27 -357 92 -65 36 -198 157 -222
203 -10 20 -10 20 37 5 72 -22 254 -20 394 6 203 37 498 138 498 172 0 14 -21
9 -115 -25 -197 -71 -440 -113 -675 -118 l-165 -3 -27 50 c-38 69 -94 210
-118 296 l-19 71 22 -6 c85 -23 192 -29 284 -18 194 25 503 153 720 299 106
71 273 205 332 267 19 20 38 33 42 29 4 -5 26 -54 48 -111z"/>
<path d="M14164 15039 c-72 -50 -69 -48 -61 -56 7 -7 107 58 128 83 21 26 -7
14 -67 -27z"/>
<path d="M22053 20969 c-55 -4 -156 -17 -223 -28 -148 -25 -150 -25 -150 -4 0
22 -6 14 -14 -19 -4 -19 -2 -28 6 -28 7 0 39 -43 70 -95 l57 -94 -49 -108
c-28 -59 -50 -113 -50 -120 0 -18 -34 -33 -74 -33 -64 0 -46 -17 32 -28 90
-14 588 -16 596 -3 7 11 -17 21 -50 21 -22 0 -23 2 -12 26 13 29 -2 242 -28
388 -8 44 -14 82 -14 82 0 1 30 7 67 14 115 22 9 41 -164 29z m69 -186 c-1
-82 1 -192 6 -245 l8 -98 -33 0 -33 0 0 64 c0 58 -33 341 -46 393 -5 19 -1 22
38 26 23 2 48 4 53 5 7 1 9 -50 7 -145z m-122 -5 c1 -131 12 -266 26 -310 4
-13 0 -18 -14 -18 -16 0 -27 16 -48 71 -16 40 -47 102 -70 139 l-42 68 42 91
c40 88 46 94 94 100 9 1 12 -34 12 -141z m-98 100 c-11 -18 -31 -52 -45 -76
l-24 -43 -46 63 c-26 34 -44 64 -41 67 5 6 89 16 147 20 l29 1 -20 -32z m39
-383 c16 -17 29 -34 29 -38 0 -4 -56 -7 -124 -7 l-124 0 51 105 51 104 44 -67
c24 -37 57 -81 73 -97z"/>
<path d="M21241 20760 c-137 -75 -391 -318 -391 -373 0 -18 6 -15 44 22 l44
43 94 -27 95 -27 18 -51 c10 -29 28 -73 41 -98 l22 -45 -24 -32 c-34 -42 -23
-57 24 -33 39 20 179 139 244 207 42 45 108 143 108 161 0 13 -89 -38 -114
-66 -14 -16 -22 -11 -93 59 -43 42 -101 91 -129 108 l-50 33 75 74 c81 80 79
93 -8 45z m37 -250 c89 -89 116 -123 107 -130 -9 -7 -26 -5 -56 8 -24 10 -57
22 -74 26 -105 25 -100 21 -130 97 l-29 70 30 24 c16 13 30 24 31 25 1 0 55
-54 121 -120z m-183 -18 l14 -43 -47 7 c-102 15 -102 15 -41 63 35 28 55 38
57 29 2 -7 10 -32 17 -56z m155 -116 c19 -3 53 -8 74 -11 l39 -6 -69 -70 c-38
-38 -72 -69 -76 -69 -5 0 -8 11 -8 24 0 13 -9 52 -19 86 l-19 62 21 -5 c12 -3
38 -8 57 -11z"/>
<path d="M22780 20781 c0 -5 8 -12 19 -16 10 -3 25 -13 34 -23 14 -16 9 -27
-59 -137 -41 -66 -89 -150 -107 -187 -21 -44 -37 -65 -47 -63 -8 2 -27 6 -41
9 -15 3 -34 0 -44 -8 -18 -13 -15 -16 32 -40 54 -27 112 -45 176 -53 l39 -5
-16 24 c-9 14 -34 33 -56 43 -40 18 -40 18 -22 39 35 39 163 274 184 337 2 6
17 4 40 -6 62 -25 77 -20 43 15 -48 50 -175 101 -175 71z"/>
<path d="M23458 20338 l29 -43 -81 -48 c-45 -26 -125 -79 -179 -118 l-98 -70
-40 43 c-39 43 -39 43 -33 13 19 -85 105 -255 129 -255 18 0 18 -2 0 50 -8 23
-15 44 -15 45 0 2 68 40 151 85 83 46 173 98 201 116 27 19 53 34 57 34 4 0
18 -11 31 -25 25 -27 40 -32 40 -14 0 22 -111 159 -157 194 -61 46 -70 44 -35
-7z m4 -169 c-54 -26 -144 -78 -201 -114 -78 -49 -106 -62 -113 -53 -15 25 -7
34 87 86 52 30 137 80 188 112 l92 58 22 -20 21 -20 -96 -49z"/>
<path d="M20837 20287 c-33 -51 -136 -266 -151 -317 -22 -74 -20 -81 9 -37 25
36 28 37 84 37 32 0 85 3 117 6 l59 5 30 -52 c17 -29 45 -73 63 -97 34 -45 35
-48 16 -122 -6 -24 -5 -23 16 5 55 77 150 299 150 348 -1 20 -2 21 -14 5 -10
-14 -39 -20 -127 -28 -63 -5 -117 -10 -121 -10 -4 0 -33 43 -64 95 -56 95 -58
101 -39 163 9 29 -8 29 -28 -1z m38 -170 c22 -39 41 -77 43 -83 2 -7 -23 -14
-65 -18 -37 -4 -78 -9 -90 -12 -21 -6 -20 -1 20 90 23 52 44 96 47 96 3 0 23
-33 45 -73z m301 -129 c-30 -67 -79 -171 -85 -178 -2 -3 -5 0 -8 6 -2 5 -24
46 -48 89 -25 43 -43 80 -40 83 2 2 46 13 96 23 51 11 95 21 97 24 13 13 10 1
-12 -47z"/>
<path d="M22560 20223 c-60 -9 -70 -14 -70 -33 0 -14 8 -20 34 -22 l34 -3
-100 -115 c-56 -63 -118 -137 -139 -163 -58 -73 -49 -126 13 -78 13 11 85 90
159 177 96 112 135 151 137 138 9 -58 13 -65 35 -62 21 3 22 7 19 68 -5 86
-14 100 -60 99 -20 -1 -48 -3 -62 -6z"/>
<path d="M20614 19797 c-23 -34 -60 -96 -82 -137 -51 -95 -162 -345 -162 -365
0 -19 17 -19 27 0 7 12 24 8 108 -24 89 -35 278 -96 494 -161 l74 -22 -24 -19
c-23 -18 -23 -19 -3 -19 11 0 30 10 42 23 22 23 75 188 113 347 22 95 20 141
-9 260 -6 24 -6 24 -10 -5 -2 -16 -7 -33 -11 -37 -4 -5 -56 -17 -116 -28 -61
-11 -139 -29 -174 -39 l-65 -18 -105 66 c-58 36 -107 65 -108 66 -2 1 13 40
32 88 18 48 31 87 27 87 -4 0 -26 -28 -48 -63z m57 -194 c43 -32 78 -61 79
-64 0 -5 -262 -88 -267 -84 -4 2 101 205 106 205 2 0 39 -26 82 -57z m485
-158 c-14 -63 -26 -117 -26 -120 0 -4 -26 16 -57 43 -32 28 -91 73 -131 100
l-74 51 39 10 c54 15 117 35 198 65 l70 25 3 -30 c2 -16 -8 -81 -22 -144z
m-241 -31 c61 -48 129 -100 153 -117 23 -17 42 -38 42 -46 0 -20 -27 -121 -34
-128 -2 -3 -44 13 -93 35 -89 41 -180 70 -423 138 -74 20 -136 38 -138 39 -2
2 7 23 19 47 21 44 23 46 88 57 36 7 107 23 156 36 50 13 97 24 105 24 8 1 65
-38 125 -85z"/>
<path d="M21339 19838 c-3 -29 4 -55 27 -100 29 -57 43 -67 60 -43 12 17 18
14 85 -34 87 -64 104 -68 126 -34 16 25 16 26 -8 46 -13 10 -59 40 -102 65
-73 42 -76 46 -57 59 24 17 26 39 4 47 -30 12 -134 7 -135 -6z"/>
<path d="M23253 19698 c-68 -134 -111 -268 -98 -307 9 -28 23 -26 31 4 3 14 7
25 9 25 1 0 22 -7 46 -16 32 -12 92 -18 227 -22 167 -4 182 -6 182 -23 0 -30
19 -32 30 -4 22 57 61 280 58 329 l-3 51 -20 -53 c-19 -49 -21 -52 -50 -47
-67 12 -293 35 -338 35 l-48 0 7 45 c3 25 4 45 2 45 -2 0 -18 -28 -35 -62z
m197 -73 c63 -8 143 -15 178 -15 l64 0 -7 -32 c-4 -18 -8 -34 -9 -34 0 -1 -28
2 -61 7 -33 4 -129 13 -213 20 -125 10 -152 15 -147 27 3 7 8 24 11 37 5 21 9
22 37 14 18 -6 84 -16 147 -24z m-39 -116 c73 -6 161 -9 196 -6 l64 5 -7 -47
c-4 -25 -7 -46 -8 -47 0 0 -55 5 -121 12 -66 7 -168 13 -227 13 -60 1 -108 2
-108 4 0 2 7 24 16 50 14 42 17 45 39 37 13 -5 83 -14 156 -21z"/>
<path d="M22405 19725 c-25 -11 -26 -14 -9 -14 l21 -1 -18 -82 c-10 -45 -23
-121 -30 -170 -6 -48 -15 -88 -18 -88 -4 0 -17 31 -29 68 -12 37 -46 106 -75
153 -48 76 -52 87 -38 97 13 9 9 10 -19 5 -42 -7 -77 -33 -44 -33 15 0 24 -12
36 -47 45 -133 129 -367 138 -382 7 -14 4 -20 -15 -29 -27 -13 -34 -42 -10
-42 37 0 202 61 202 74 0 20 -37 28 -75 16 -18 -5 -32 -7 -32 -4 0 2 16 103
35 225 19 122 35 226 35 230 0 4 21 14 48 22 l47 15 -60 1 c-33 0 -73 -6 -90
-14z"/>
<path d="M21764 19716 c-33 -15 -61 -45 -31 -33 17 6 29 -10 87 -120 l32 -62
-71 -113 c-38 -62 -86 -131 -106 -152 -24 -27 -32 -43 -26 -49 14 -14 181 -23
181 -10 0 5 -18 15 -40 22 -22 6 -40 13 -40 15 0 13 127 206 136 206 3 0 16
-26 30 -57 14 -32 36 -79 49 -105 13 -27 20 -48 15 -48 -6 0 -10 -4 -10 -10 0
-13 59 -13 99 1 29 10 31 13 16 28 -26 26 -123 167 -144 209 l-19 38 61 102
c48 81 63 100 73 90 13 -15 47 -189 67 -346 12 -92 12 -104 -2 -112 -14 -9
-14 -11 -1 -20 8 -5 22 -7 30 -3 8 3 34 8 58 11 45 4 62 32 19 32 -23 0 -24 4
-30 98 -6 97 -36 221 -76 315 l-20 47 22 0 c16 0 18 3 8 9 -7 5 -31 6 -53 3
-22 -3 -43 0 -47 5 -8 13 -101 27 -101 15 0 -5 9 -13 20 -18 19 -9 17 -13 -24
-83 l-44 -74 -36 79 c-34 73 -36 80 -20 91 16 12 16 13 -7 13 -13 -1 -38 -7
-55 -14z"/>
<path d="M22987 19185 c-15 -19 -61 -103 -101 -187 -54 -113 -75 -167 -78
-207 -5 -53 -5 -54 12 -31 10 13 40 61 66 106 27 46 54 83 59 84 6 0 18 -12
27 -27 9 -16 96 -109 193 -208 189 -193 212 -223 195 -254 -5 -11 -10 -27 -10
-37 0 -13 3 -14 15 -4 17 14 108 198 125 255 7 22 28 67 46 101 19 33 34 68
34 77 0 10 4 17 8 17 4 0 7 12 6 28 -1 15 5 43 13 62 8 19 16 82 18 140 5 111
-8 103 -20 -13 -6 -49 -9 -57 -23 -52 -35 13 -202 44 -352 65 -223 30 -204 23
-196 76 3 24 2 44 -2 43 -4 0 -20 -16 -35 -34z m168 -110 c144 -31 419 -96
423 -100 2 -2 1 -12 -2 -23 -5 -15 -14 -19 -41 -16 -19 1 -39 5 -44 8 -5 4
-97 15 -203 26 -175 18 -308 36 -315 44 -8 8 34 86 47 86 8 0 69 -11 135 -25z
m229 -173 c75 -16 139 -32 143 -35 12 -13 -31 -133 -84 -235 -31 -59 -58 -109
-59 -111 -4 -5 -22 16 -78 89 -61 80 -161 194 -241 275 l-60 61 122 -8 c67 -4
183 -21 257 -36z"/>
<path d="M20842 19133 c2 -5 12 -25 22 -45 18 -35 18 -38 2 -60 -9 -13 -33
-49 -54 -81 -40 -62 -41 -63 -149 -71 l-72 -6 -36 61 c-21 33 -39 59 -41 56
-2 -2 8 -41 22 -87 28 -92 84 -218 142 -320 20 -36 36 -68 35 -72 -4 -11 72
-88 87 -88 10 0 11 3 4 8 -12 8 -47 72 -42 77 2 1 19 10 38 20 92 46 289 168
314 194 l29 30 19 -24 c19 -24 48 -34 48 -17 0 9 -74 135 -95 160 -97 121
-123 153 -154 186 -46 48 -132 106 -119 79z m150 -220 c-4 -1 -39 -6 -78 -11
l-71 -8 31 67 30 66 48 -56 c26 -31 44 -57 40 -58z m56 -54 c7 -12 12 -22 10
-24 -2 -1 -40 -23 -85 -49 -45 -25 -123 -71 -173 -101 -50 -30 -95 -55 -100
-55 -4 0 -12 12 -17 26 -7 22 -3 31 27 63 20 21 49 59 65 84 28 44 32 46 85
53 30 3 78 9 105 14 28 4 55 8 60 9 6 0 16 -8 23 -20z m-351 -5 l52 -7 -31
-61 c-48 -96 -48 -96 -79 -27 -43 95 -44 101 -17 101 13 0 46 -3 75 -6z m416
-71 c18 -21 18 -21 -48 -54 -37 -18 -124 -70 -194 -115 l-126 -83 -18 35 c-10
20 -17 37 -15 39 2 1 71 37 153 78 83 42 168 87 190 100 22 13 40 23 40 23 0
-1 8 -11 18 -23z"/>
<path d="M22230 19062 c0 -5 36 -100 81 -213 105 -265 99 -243 59 -234 -23 5
-30 4 -26 -4 8 -12 79 -51 94 -51 11 0 28 40 37 85 l6 30 -26 -29 c-14 -15
-27 -27 -29 -25 -1 2 -18 47 -38 99 -63 170 -140 350 -149 350 -5 0 -9 -4 -9
-8z"/>
<path d="M21270 18632 c0 -5 26 -34 59 -65 56 -53 57 -56 40 -74 -14 -15 -158
-219 -220 -313 l-16 -25 -54 36 c-64 42 -119 72 -125 67 -2 -2 18 -27 45 -55
75 -79 438 -313 485 -313 16 0 16 2 -3 18 l-20 17 45 125 c25 69 58 166 72
217 l26 92 39 -20 c21 -11 41 -18 43 -16 5 4 -150 136 -265 226 -60 46 -151
97 -151 83z m178 -165 c9 -7 3 -19 -24 -49 -31 -34 -85 -115 -191 -281 l-24
-38 -30 21 -29 22 43 51 c45 53 169 220 200 270 17 27 25 27 55 4z m68 -48
c19 -11 34 -24 34 -29 0 -10 -72 -92 -175 -200 -40 -41 -81 -87 -92 -102 -13
-18 -24 -24 -33 -18 -11 7 -8 16 13 43 61 80 207 301 207 314 0 18 7 17 46 -8z
m-32 -294 c-25 -99 -47 -181 -48 -182 -4 -5 -146 98 -146 105 0 4 27 34 61 67
33 33 85 90 116 127 31 37 58 66 59 65 2 -1 -17 -83 -42 -182z"/>
<path d="M22600 18517 c-57 -45 -153 -145 -171 -178 -16 -31 20 -38 43 -8 45
56 69 79 77 75 5 -3 43 -94 86 -202 l78 -196 -44 -39 c-24 -21 -40 -38 -35
-39 12 0 131 73 296 184 74 50 140 93 145 95 16 7 125 114 121 118 -5 5 -81
-33 -117 -58 -26 -18 -26 -18 -100 20 -41 22 -139 70 -219 107 -80 37 -147 69
-149 71 -2 1 11 18 28 38 17 20 29 40 26 46 -8 12 -3 15 -65 -34z m192 -197
c102 -49 191 -90 198 -90 26 0 0 -23 -124 -114 l-129 -94 -59 175 c-32 96 -63
183 -68 194 -6 10 -9 19 -7 19 2 0 87 -40 189 -90z"/>
<path d="M21785 18292 c-16 -7 -10 -11 33 -23 50 -12 53 -15 48 -39 -3 -14 -9
-117 -12 -228 l-7 -204 -31 6 c-22 4 -27 3 -16 -4 8 -5 23 -10 33 -10 11 0 21
-9 24 -20 4 -15 9 -18 18 -10 9 8 49 3 136 -14 159 -32 259 -43 259 -27 0 6
-6 11 -14 11 -18 0 -26 22 -26 71 0 48 -74 345 -105 422 -6 15 0 17 66 17 43
0 69 4 64 9 -27 24 -427 61 -470 43z m241 -50 l42 -7 -52 -185 c-29 -102 -56
-195 -60 -207 -6 -18 -4 -22 8 -17 18 7 18 8 76 184 l48 145 22 -75 c12 -41
32 -113 46 -160 14 -47 34 -107 45 -133 11 -27 19 -50 17 -52 -2 -1 -75 11
-163 28 l-160 32 0 227 0 228 45 -1 c25 0 64 -4 86 -7z"/>
<path d="M16515 11540 c-3 -5 1 -25 9 -44 8 -19 38 -115 66 -212 44 -151 113
-325 125 -313 6 7 -32 191 -59 287 -58 206 -116 322 -141 282z"/>
<path d="M5868 15095 c-3 -3 -115 -7 -249 -9 -255 -4 -363 -16 -494 -57 -54
-16 -77 -30 -115 -69 -68 -70 -134 -173 -225 -355 -103 -204 -147 -315 -153
-386 l-4 -56 59 -69 c157 -181 520 -494 574 -494 25 0 35 26 18 47 -8 9 -63
59 -124 111 -60 52 -190 171 -289 265 -207 198 -196 169 -122 343 82 191 235
453 310 532 42 45 116 65 361 102 110 16 235 40 277 53 56 18 80 21 88 13 8
-8 70 -10 199 -8 l188 3 50 -63 c28 -35 92 -126 143 -203 109 -164 267 -375
287 -382 45 -17 26 16 -141 252 -217 308 -240 340 -287 388 l-45 47 -150 0
c-83 0 -153 -2 -156 -5z"/>
<path d="M5780 14415 c-63 -20 -114 -66 -147 -133 -24 -49 -28 -69 -28 -142 0
-71 5 -95 27 -142 15 -33 23 -60 17 -64 -5 -3 -21 -29 -36 -57 -19 -39 -27
-72 -31 -130 -5 -89 12 -148 59 -202 l29 -32 -52 -7 c-61 -8 -208 -56 -208
-68 0 -16 209 -7 430 17 366 42 428 52 475 80 74 43 211 246 311 461 45 95 59
154 30 124 -8 -8 -56 -78 -107 -155 -130 -198 -219 -313 -276 -358 -18 -15
-76 -25 -256 -48 l-232 -29 -45 23 c-64 33 -95 91 -95 177 0 48 6 78 23 112
l23 47 55 -54 c125 -125 264 -144 318 -42 26 47 15 97 -32 149 -70 78 -174
106 -267 73 -48 -18 -57 -10 -75 66 -23 95 10 185 80 222 53 27 186 20 262
-15 86 -40 135 -96 202 -231 40 -81 62 -115 69 -108 6 6 11 45 11 89 1 71 -2
85 -37 154 -41 84 -99 143 -179 184 -102 52 -227 67 -318 39z m156 -483 c38
-20 75 -73 72 -101 -3 -23 -8 -26 -46 -29 -32 -2 -54 3 -86 22 -45 26 -121
104 -112 113 21 22 129 18 172 -5z"/>
<path d="M11451 12899 c-21 -9 -42 -22 -46 -29 -6 -9 -10 -9 -16 1 -7 11 -9
11 -9 1 0 -7 -12 -30 -27 -50 -21 -28 -22 -33 -6 -19 20 18 21 18 21 -15 0
-18 0 -125 1 -238 1 -136 -3 -223 -11 -259 -14 -60 -37 -83 -61 -62 -13 10
-13 16 -2 38 14 27 12 43 -6 43 -17 0 -27 -43 -17 -72 15 -43 34 -53 63 -34
54 36 60 62 60 291 0 116 -4 239 -8 276 -8 64 -8 65 18 77 46 21 71 15 109
-29 35 -42 49 -87 48 -161 -1 -57 -9 -75 -42 -88 -16 -7 -37 -24 -46 -38 -16
-24 -16 -26 2 -39 10 -7 22 -13 28 -13 13 0 76 43 76 52 0 12 52 -11 86 -37
35 -27 63 -93 58 -138 -7 -72 -64 -141 -119 -147 -73 -8 -108 16 -138 97 l-18
48 5 -58 c8 -92 64 -157 136 -157 50 0 117 36 143 78 65 102 74 230 22 298
-15 20 -35 38 -44 41 -9 4 -19 11 -22 16 -4 5 -23 9 -43 10 -33 1 -37 3 -31
22 17 56 25 94 25 130 0 131 -89 209 -189 164z m64 -379 c-3 -5 -13 -10 -21
-10 -8 0 -12 5 -9 10 3 6 13 10 21 10 8 0 12 -4 9 -10z"/>
<path d="M11315 12769 c-4 -6 -5 -12 -2 -15 2 -3 7 2 10 11 7 17 1 20 -8 4z"/>
<path d="M11285 12732 c-11 -2 -25 -8 -32 -14 -15 -12 -45 -98 -34 -98 5 0 12
15 17 32 13 43 44 51 45 11 0 -15 3 -22 6 -15 8 20 20 14 31 -15 9 -27 7 -71
-4 -82 -9 -9 -24 23 -24 53 0 16 -3 26 -7 23 -12 -12 -4 -81 12 -96 26 -26 48
8 53 81 3 54 0 67 -20 93 -15 21 -30 29 -43 27z"/>
<path d="M11301 12594 c0 -11 3 -14 6 -6 3 7 2 16 -1 19 -3 4 -6 -2 -5 -13z"/>
<path d="M11466 12395 c-3 -9 -6 -22 -5 -28 0 -7 5 -1 10 12 5 13 8 26 5 28
-2 2 -6 -3 -10 -12z"/>
<path d="M14273 5546 c-145 -29 -169 -48 -120 -94 26 -25 56 -27 143 -11 116
21 188 69 171 113 -9 22 -56 20 -194 -8z"/>
<path d="M5980 16543 c-28 -7 -41 -43 -55 -151 -8 -59 -21 -143 -29 -187 -7
-44 -17 -128 -21 -186 -6 -91 -4 -108 10 -122 61 -61 121 40 239 396 55 167
57 195 16 226 -30 21 -120 35 -160 24z"/>
<path d="M4554 16295 c-9 -22 17 -79 93 -206 38 -63 88 -150 111 -194 46 -87
101 -155 127 -155 38 0 131 130 140 195 10 60 -10 91 -107 171 -46 37 -104 87
-129 110 -26 23 -69 54 -97 68 -58 30 -129 35 -138 11z"/>
<path d="M7142 16140 c-15 -6 -34 -33 -53 -77 -17 -38 -64 -135 -105 -218 -75
-152 -82 -173 -64 -219 22 -58 79 -26 231 130 111 114 172 202 189 275 13 51
13 52 -19 81 -27 25 -42 30 -94 34 -34 2 -72 -1 -85 -6z"/>
<path d="M3550 15291 c-27 -7 -60 -61 -60 -97 0 -31 21 -46 175 -122 241 -119
334 -143 432 -110 32 11 70 31 84 45 24 22 26 28 16 60 -13 40 -57 77 -150
124 -116 59 -423 121 -497 100z"/>
<path d="M3545 14325 c-5 -2 -43 -13 -82 -24 -64 -19 -73 -25 -73 -45 0 -13
10 -38 23 -57 31 -47 129 -80 257 -86 114 -6 142 3 219 72 l53 49 -33 29 c-67
56 -103 67 -234 66 -66 0 -124 -2 -130 -4z"/>
</g>
</svg>
