<svg xmlns="http://www.w3.org/2000/svg" viewBox="0 0 288.781 288.781" width="866.344" height="866.344"><defs><style>@font-face{font-family:&quot;Virgil&quot;;src:url(https://excalidraw.com/Virgil.woff2)}@font-face{font-family:&quot;Cascadia&quot;;src:url(https://excalidraw.com/Cascadia.woff2)}</style></defs><g stroke-linecap="round"><path d="m186.023 11.867 92.956 88.247-175.95 178.17-94.483-92.207" stroke-width="0" fill="#ddd"/><path d="M188.08 10.87c29.472 31.084 65.23 63.166 91.203 93.182m-92.836-93.401c22.479 21.446 44.618 43.274 91.195 91.62m1.485.904c-41.09 42.095-81.692 82.428-176.26 174.705m176.14-175.447c-43.734 42.518-87.865 86.324-175.596 176.275m-.268.777c-26.347-25.074-53.875-53.337-93.53-91.577m92.356 90.432c-22.154-19.792-44.117-42.15-91.967-90.764m1.033-1.103C76.577 122.458 142.274 53.466 185.11 9.88M10.11 185.377c52.58-53.967 106.03-107.403 175.525-175.144" stroke="#dddd" stroke-width="2" fill="none"/></g><g stroke-linecap="round"><path d="m116.55 88.298 83.855 85.228-21.17 17.04-80.455-81.062" stroke-width="0" fill="#1a1a1a"/><path d="M115.143 91.897c29.634 26.566 61.475 57.163 83.318 78.496M115.765 89.38c20.923 23.455 42.624 44.576 82.675 84.556m-1.047-1.839c-1.209 4.858-6.336 7.552-18.243 19.106m20.478-18.215c-5.6 4.639-7.637 8.005-19.34 17.416m1.266 1.464c-22.373-23.49-43.176-46.019-82.597-85.355m82.54 84.549c-23.737-23.3-45.198-45.708-82.922-83.375m-1.867-.41c6.449-3.493 12.954-11.908 20.492-17m-18.434 17.87c3.988-5.417 11.314-12.106 16.37-18.59" stroke="#000" stroke-width="2" fill="none"/></g><g stroke-linecap="round"><path d="m115.272 89.688 82.004 85.95-61.865 61.256-84.309-83.446" stroke-width="0" fill="#fab005"/><path d="M115.258 91.682c27.86 26.361 53.846 53.903 83.41 82.053m-82.971-82.067c18.908 19.644 39.873 38.347 82.561 82.675m-.339-1.386c-14.086 14.92-27.096 30.066-63.286 64.7m63.024-62.5c-24.685 21.234-48.097 46.202-62.826 62.812m-.438-1.316c-31.29-31.275-61.738-61.85-81.275-81.741m80.95 83.523c-30.717-32.145-62.261-63.378-81.912-83.269m.898.56c11.809-14.963 26.24-30.385 61.327-62.856m-62.487 62.615c22.677-24.898 46.09-46.712 61.844-64.404" stroke="#000" stroke-width="2" fill="none"/></g><g stroke-linecap="round"><path d="m188.26 18.58 81.148 82.025-62.543 66.645-82.463-84.952" stroke-width="0" fill="#1a1a1a"/><path d="M186.33 17.442c26.474 28.073 50.89 52.362 82.244 85.992m-80.32-84.351c23.645 23.97 46.35 46.973 81.89 82.965m1.598-.17c-18.194 16.865-33.468 33.566-67.041 65.004m65.315-65.216c-25.54 25.413-51.23 50.763-64.148 63.54m-.736-1.216c-18.78-19.983-40.708-41.09-83.431-80.744m83.587 82.144c-29.317-29.953-61.504-61.461-82.428-81.593m-.417-1.322c17.777-15.387 37.321-34.38 62.72-62.437m-61.518 62.578c19.113-19.31 40.617-40.12 63.06-62.578" stroke="#000" stroke-width="2" fill="none"/></g><g stroke-linecap="round"><path d="m206.976 38.929 42.518 44.342-39.64 37.69-42.88-40.207" stroke-width="0" fill="#fab005"/><path d="M208.192 40.103c7.085 7.269 14.842 18.858 39.513 42.044m-39.923-41.436c13.343 14.446 29.415 29.953 40.545 40.573m.834.495c-8.647 10.67-22.196 22.083-37.702 39.683m37.893-39.364c-9.991 9.75-20.13 18.505-40.397 38.544m1.514 1.032c-11.816-11.193-26.333-22.995-42.193-40.538m41.23 40.793c-14.7-13.71-27.456-25.42-42.34-42.045m-.439 1.994c16.136-15.287 26.948-28.673 42.101-42.85m-42.737 41.054c9.44-8.874 17.196-15.386 41.797-40.17" stroke="#000" stroke-width="2" fill="none"/></g><g stroke-linecap="round"><path d="m75.227 131.327 49.8-.56 2.76 49.71-51.8.34" stroke-width="0" fill="#1a1a1a"/><path d="M76.317 130.877c14.72.04 30.9-1.48 52.07.43m-52.58.33c15.05-1.52 30.16-.85 50.84-.39m-.51-1.53c-.75 17.31.44 32.62 1.69 49.5m-1.45-49.08c.48 20.86.44 39.79.56 49.72m-.16-1.43c-14.19 1.86-27.92 3.23-48.31.13m48.43 1.74c-12.86.23-25.8-.38-49.62-1.34m.6.96c-1.51-18.45-.27-39.54-1.95-50.52m-.05 49.1c.61-9.73.58-22.65.09-46.67" stroke="#000" stroke-width="2" fill="none"/></g><g stroke-linecap="round"><path d="m109.346 161.985 51.01 3.78.88 47.46-53.06 1.06" stroke-width="0" fill="#1a1a1a"/><path d="M108.156 162.035c21.01 1.2 39.36.24 52.63 2.81m-51.09-1.14c13.8 1.01 26.85.38 49.73.25m-.37.99c-1.69 14.98-.94 30.08 1.88 45.79m-.72-46.79c-.04 17.01-.92 35.44-1.59 48.59m.84.47c-10.44.56-21.98-1.67-50.96-.96m51.53-.07c-10.02.85-21.43 1.68-51.2.98m1.08-.47c-.24-16.45-2.34-32.46.57-46.74m-1.92 47.35c1.69-16.01.49-33.09 1.45-48.37" stroke="#000" stroke-width="2" fill="none"/></g><g stroke-linecap="round"><path d="m73.95 130.122 85.01 84.4-26.044 21.913-84.343-80.242" stroke-width="0" fill="#1a1a1a"/><path d="M75.832 130.25c32.018 29.57 63.49 64.212 82.774 81.33M75.06 130.568c22.33 21.34 42.631 41.444 83.658 81.919m-1.018-.029c-8.952 9.122-16.73 15.981-25.866 26.602m27.782-26.057c-7.906 5.727-14.369 12.445-27.097 25.498m1.146-2.022c-25.449-25.902-53.634-49.717-85.114-80.815m85.043 82.993C110.438 215.78 86.92 194.37 50.715 154.7m-.608.283c9.539-7.644 15.995-15.062 25.71-22.656M51.19 154.821c5.035-6.477 12.693-13.371 25.201-24.211" stroke="#000" stroke-width="2" fill="none"/></g><g stroke-linecap="round"><path d="m50.707 157.917 81.246 82.548-31.763 29.938-80.059-82.25" stroke-width="0" fill="#fab005"/><path d="M48.939 157.577c19.721 15.833 36.883 34.72 84.004 82.647m-83.297-84.33c21.51 23.76 43.883 45.58 82.562 84.33m1.506-1.548c-8.81 7.099-12.58 13.046-33.602 31.805m31.05-31.204c-9.759 10.267-20.493 21.1-30.215 31.204m-1.273.82c-20.188-24.204-42.702-46.308-80.54-84.131m82.216 82.47c-28.83-26.496-55.911-55.741-82.477-81.261m-.46-3.033c6.442-5.876 15.677-12.325 33.22-28.242m-33.694 30.045c10.699-9.808 20.613-18.336 30.696-30.64" stroke="#000" stroke-width="2" fill="none"/></g></svg>